<svg width="210" height="18" viewBox="0 0 210 18" fill="none" xmlns="http://www.w3.org/2000/svg">
<path d="M136.472 11.7059L132.327 2.61496C131.854 1.63314 131.2 1.19678 130.254 1.19678H130.109C129.127 1.19678 128.472 1.63314 128 2.61496L123.854 11.7059C123.454 12.615 123.745 13.415 124.581 13.7422C125.345 14.0331 126.036 13.8513 126.472 12.9786L127.418 10.9786C128.254 11.2695 129.309 11.415 130.254 11.415C131.272 11.415 132.254 11.2695 132.981 10.9786L133.891 12.9786C134.291 13.8513 135.091 13.9968 135.781 13.7422C136.545 13.415 136.872 12.5786 136.472 11.7059ZM130.181 8.72405C129.563 8.72405 128.872 8.65132 128.363 8.4695L130.145 4.50587L131.927 8.4695C131.381 8.61496 130.8 8.72405 130.181 8.72405Z" fill="#B1B1B1"/>
<path d="M121.49 10.9056H120.69V2.57831C120.69 1.63286 119.963 1.0874 119.126 1.0874C118.29 1.0874 117.636 1.63286 117.636 2.57831V10.9056H112.326V2.57831C112.326 1.63286 111.636 1.0874 110.763 1.0874C109.89 1.0874 109.199 1.63286 109.199 2.57831V12.3601C109.199 13.1965 109.745 13.851 110.69 13.851H119.926V15.1965C119.926 16.1419 120.617 16.6874 121.417 16.6874C122.29 16.6874 122.908 16.1419 122.908 15.1965V12.3965C122.981 11.4147 122.399 10.9056 121.49 10.9056Z" fill="#B1B1B1"/>
<path d="M106.108 10.9056H105.308V2.57831C105.308 1.63286 104.581 1.0874 103.745 1.0874C102.908 1.0874 102.254 1.63286 102.254 2.57831V10.9056H96.9447V2.57831C96.9447 1.63286 96.2537 1.0874 95.381 1.0874C94.5083 1.0874 93.8174 1.63286 93.8174 2.57831V12.3601C93.8174 13.1965 94.3628 13.851 95.3083 13.851H104.545V15.1965C104.545 16.1419 105.236 16.6874 106.036 16.6874C106.908 16.6874 107.526 16.1419 107.526 15.1965V12.3965C107.599 11.4147 107.017 10.9056 106.108 10.9056Z" fill="#B1B1B1"/>
<path d="M89.0178 1.16013H88.9087C87.9996 1.16013 87.4178 1.59649 86.7632 2.50558L81.7814 9.59649V2.57831C81.7814 1.63286 81.1632 1.0874 80.3268 1.0874C79.4541 1.0874 78.8359 1.63286 78.8359 2.57831V12.1419C78.8359 13.1601 79.5268 13.851 80.545 13.851H80.6905C81.6359 13.851 82.2905 13.3783 82.8723 12.5056L87.8541 5.41468V12.5056C87.8541 13.451 88.4723 13.9965 89.3087 13.9965C90.145 13.9965 90.7632 13.451 90.7632 12.5056V2.86922C90.7632 1.85104 90.145 1.16013 89.0178 1.16013Z" fill="#B1B1B1"/>
<path d="M74.1086 1.16064H65.5632C64.5814 1.16064 64.0723 1.85155 64.0723 2.65155V12.4334C64.0723 13.3788 64.7995 13.9243 65.6359 13.9243C66.4723 13.9243 67.1268 13.3788 67.1268 12.4334V4.14246H72.5814V12.4697C72.5814 13.4152 73.2723 13.9606 74.145 13.9606C74.9814 13.9606 75.7086 13.4152 75.7086 12.397V2.65155C75.6723 1.85155 75.0905 1.16064 74.1086 1.16064Z" fill="#B1B1B1"/>
<path d="M51.9632 1.0874C48.2905 1.0874 45.4541 3.85104 45.4541 7.56013C45.4541 11.2692 48.2541 14.0329 51.9632 14.0329C55.5996 14.0329 58.4723 11.2329 58.4723 7.52377C58.3996 3.77831 55.5996 1.0874 51.9632 1.0874ZM51.9632 11.0874C49.9268 11.0874 48.5086 9.59649 48.5086 7.52377C48.5086 5.4874 49.9632 3.99649 51.9632 3.99649C53.9996 3.99649 55.4177 5.4874 55.4177 7.52377C55.4177 9.59649 53.9996 11.0874 51.9632 11.0874Z" fill="#B1B1B1"/>
<path d="M43.3092 10.9059H42.5092V2.68769C42.5092 1.85132 41.9637 1.19678 41.0183 1.19678H34.0001C33.1637 1.19678 32.6183 1.74223 32.6183 2.68769V4.68769C32.6183 6.10587 32.5819 7.23314 32.3273 8.39678C32.0728 9.56041 31.7819 10.2877 31.3455 10.9059H30.9819C30.0001 10.9059 29.5273 11.5241 29.5273 12.3968V15.1968C29.5273 16.1422 30.2183 16.6877 31.0183 16.6877C31.891 16.6877 32.5092 16.1422 32.5092 15.1968V13.8513H41.7455V15.1968C41.7455 16.1422 42.4364 16.6877 43.2364 16.6877C44.1092 16.6877 44.7273 16.1422 44.7273 15.1968V12.3968C44.8001 11.5241 44.3273 10.9059 43.3092 10.9059ZM39.4546 10.9059H34.4728C34.8001 10.215 35.0183 9.63314 35.2364 8.76041C35.4183 7.81496 35.5273 6.8695 35.5637 5.63314L35.6001 4.1786H39.491V10.9059H39.4546Z" fill="#B1B1B1"/>
<path d="M22.7269 1.0874C19.0541 1.0874 16.2178 3.85104 16.2178 7.56013C16.2178 11.2692 19.0178 14.0329 22.7269 14.0329C26.3632 14.0329 29.236 11.2329 29.236 7.52377C29.236 3.77831 26.436 1.0874 22.7269 1.0874ZM22.7269 11.0874C20.7269 11.0874 19.2723 9.59649 19.2723 7.52377C19.2723 5.4874 20.7269 3.99649 22.7269 3.99649C24.7632 3.99649 26.1814 5.4874 26.1814 7.52377C26.1814 9.59649 24.836 11.0874 22.7269 11.0874Z" fill="#B1B1B1"/>
<path d="M13.9994 10.9059H13.1994V2.68769C13.1994 1.85132 12.6539 1.19678 11.7085 1.19678H4.69027C3.85391 1.19678 3.30845 1.74223 3.30845 2.68769V4.68769C3.30845 6.10587 3.30845 7.23314 3.01754 8.39678C2.763 9.56041 2.47209 10.2877 2.03572 10.9059H1.70845C0.726633 10.9059 0.253906 11.5241 0.253906 12.3968V15.1968C0.253906 16.1422 0.944815 16.6877 1.74481 16.6877C2.61754 16.6877 3.23572 16.1422 3.23572 15.1968V13.8513H12.4721V15.1968C12.4721 16.1422 13.163 16.6877 13.963 16.6877C14.8357 16.6877 15.4539 16.1422 15.4539 15.1968V12.3968C15.5266 11.5241 15.0539 10.9059 13.9994 10.9059ZM10.1812 10.9059H5.163C5.49027 10.215 5.70845 9.63314 5.92663 8.76041C6.10845 7.81496 6.21754 6.8695 6.25391 5.63314L6.29027 4.1786H10.1812V10.9059Z" fill="#B1B1B1"/>
<path d="M155.444 13.1845C154.556 13.1845 153.722 13.0225 152.942 12.6985C152.162 12.3625 151.478 11.9065 150.89 11.3305C150.302 10.7425 149.84 10.0585 149.504 9.27845C149.168 8.48645 149 7.64645 149 6.75845C149 5.84645 149.168 5.00645 149.504 4.23845C149.84 3.45845 150.302 2.77445 150.89 2.18645C151.478 1.59845 152.162 1.14245 152.942 0.818453C153.722 0.482453 154.556 0.314453 155.444 0.314453C156.32 0.314453 157.148 0.482453 157.928 0.818453C158.708 1.14245 159.392 1.59845 159.98 2.18645C160.568 2.77445 161.03 3.45845 161.366 4.23845C161.702 5.00645 161.87 5.84645 161.87 6.75845C161.87 7.64645 161.702 8.48645 161.366 9.27845C161.03 10.0585 160.568 10.7425 159.98 11.3305C159.392 11.9065 158.708 12.3625 157.928 12.6985C157.148 13.0225 156.32 13.1845 155.444 13.1845ZM155.444 12.0145C156.164 12.0145 156.842 11.8825 157.478 11.6185C158.114 11.3545 158.672 10.9825 159.152 10.5025C159.644 10.0225 160.022 9.46445 160.286 8.82845C160.562 8.18045 160.7 7.49045 160.7 6.75845C160.7 6.01445 160.562 5.32445 160.286 4.68845C160.022 4.05245 159.644 3.49445 159.152 3.01445C158.672 2.53445 158.114 2.16245 157.478 1.89845C156.842 1.62245 156.164 1.48445 155.444 1.48445C154.712 1.48445 154.028 1.62245 153.392 1.89845C152.768 2.16245 152.21 2.53445 151.718 3.01445C151.238 3.49445 150.86 4.05245 150.584 4.68845C150.32 5.32445 150.188 6.01445 150.188 6.75845C150.188 7.49045 150.32 8.18045 150.584 8.82845C150.86 9.46445 151.238 10.0225 151.718 10.5025C152.198 10.9825 152.756 11.3545 153.392 11.6185C154.028 11.8825 154.712 12.0145 155.444 12.0145ZM155.75 10.5025C155.078 10.5025 154.448 10.3525 153.86 10.0525C153.272 9.74045 152.792 9.30245 152.42 8.73845C152.06 8.17445 151.88 7.51445 151.88 6.75845C151.88 6.07445 152.048 5.45045 152.384 4.88645C152.732 4.32245 153.2 3.87245 153.788 3.53645C154.376 3.18845 155.03 3.01445 155.75 3.01445C156.446 3.01445 157.076 3.17645 157.64 3.50045C157.832 3.58445 157.946 3.74045 157.982 3.96845C158.018 4.18445 157.97 4.37645 157.838 4.54445C157.742 4.67645 157.61 4.75445 157.442 4.77845C157.274 4.79045 157.118 4.76045 156.974 4.68845C156.794 4.59245 156.602 4.52045 156.398 4.47245C156.194 4.42445 155.978 4.40045 155.75 4.40045C155.282 4.40045 154.862 4.50845 154.49 4.72445C154.118 4.92845 153.824 5.21045 153.608 5.57045C153.392 5.91845 153.284 6.31445 153.284 6.75845C153.284 7.23845 153.392 7.65845 153.608 8.01845C153.836 8.37845 154.136 8.65445 154.508 8.84645C154.892 9.02645 155.306 9.11645 155.75 9.11645C155.966 9.11645 156.176 9.09245 156.38 9.04445C156.584 8.99645 156.782 8.92445 156.974 8.82845C157.118 8.75645 157.274 8.73245 157.442 8.75645C157.61 8.78045 157.742 8.85845 157.838 8.99045C157.982 9.17045 158.03 9.36845 157.982 9.58445C157.946 9.78845 157.838 9.93845 157.658 10.0345C157.358 10.1905 157.046 10.3105 156.722 10.3945C156.41 10.4665 156.086 10.5025 155.75 10.5025Z" fill="#979797"/>
<path d="M173.928 0.865511C176.25 0.865511 177.798 2.21551 177.798 4.24951C177.798 6.37351 176.412 7.36351 174.468 8.49751C172.038 9.90151 171.552 10.6935 171.534 11.8275H178.086V13.2495H169.716C169.698 13.1235 169.698 12.9795 169.698 12.8895C169.698 10.5855 170.274 9.27151 173.28 7.52551C175.116 6.44551 176.07 5.77951 176.07 4.28551C176.07 3.11551 175.242 2.30551 173.91 2.30551C172.362 2.30551 171.642 3.18751 171.552 4.68151H169.86C169.95 2.26951 171.516 0.865511 173.928 0.865511ZM184.036 0.865511C186.88 0.865511 188.428 3.09751 188.428 7.18351C188.428 11.2695 186.88 13.5015 184.036 13.5015C181.192 13.5015 179.644 11.2695 179.644 7.18351C179.644 3.09751 181.192 0.865511 184.036 0.865511ZM184.036 2.32351C182.308 2.32351 181.372 4.01551 181.372 7.18351C181.372 10.3695 182.308 12.0795 184.036 12.0795C185.782 12.0795 186.718 10.3695 186.718 7.18351C186.718 4.01551 185.782 2.32351 184.036 2.32351ZM194.143 0.865511C196.465 0.865511 198.013 2.21551 198.013 4.24951C198.013 6.37351 196.627 7.36351 194.683 8.49751C192.253 9.90151 191.767 10.6935 191.749 11.8275H198.301V13.2495H189.931C189.913 13.1235 189.913 12.9795 189.913 12.8895C189.913 10.5855 190.489 9.27151 193.495 7.52551C195.331 6.44551 196.285 5.77951 196.285 4.28551C196.285 3.11551 195.457 2.30551 194.125 2.30551C192.577 2.30551 191.857 3.18751 191.767 4.68151H190.075C190.165 2.26951 191.731 0.865511 194.143 0.865511ZM207.796 2.52151H202.306L201.946 6.28351H201.982C202.54 5.63551 203.458 5.27551 204.43 5.27551C206.806 5.27551 208.354 6.84151 208.354 9.27151C208.354 11.8455 206.68 13.5015 204.106 13.5015C201.73 13.5015 200.164 12.1875 200.164 10.0275H201.856C201.874 11.3235 202.828 12.0615 204.106 12.0615C205.672 12.0615 206.644 11.0355 206.644 9.32551C206.644 7.65151 205.69 6.67951 204.196 6.67951C203.008 6.67951 202.18 7.29151 201.892 8.38951L200.254 8.28151L200.92 1.11751H207.796V2.52151Z" fill="#979797"/>
</svg>
