<svg width="139" height="30" viewBox="0 0 139 30" fill="none" xmlns="http://www.w3.org/2000/svg">
<path fill-rule="evenodd" clip-rule="evenodd" d="M132.448 4.38081C134.366 4.25103 136.471 4.04708 137.825 3.69481L137.825 0.505859C136.283 0.895208 133.896 1.11769 131.696 1.28456C125.117 1.80369 122.053 4.696 122.071 15.1157C122.071 21.2341 125.267 24.6455 130.343 24.6455C135.418 24.6455 138.614 21.3268 138.614 15.9871C138.614 11.0183 135.588 7.95911 130.888 7.95911C127.655 7.95911 125.869 9.36818 125.042 11.3149L124.966 11.3149C125.549 6.69836 126.94 4.73308 132.448 4.38081ZM130.324 21.7161C127.561 21.7161 125.944 19.6025 125.944 16.0242C125.944 12.965 127.091 10.7216 130.23 10.7216C132.993 10.7216 134.648 12.7611 134.648 16.2467C134.648 19.7323 133.087 21.7161 130.324 21.7161ZM118.856 13.6157L118.856 19.7897C118.856 21.7364 119.025 23.1084 119.288 24.1467L115.885 24.1467C115.716 23.4236 115.66 22.6078 115.66 21.8291L115.585 21.8291C114.363 23.5905 112.483 24.499 109.945 24.499C106.448 24.499 104.268 22.4224 104.268 19.5857C104.268 16.7491 105.884 15.136 110.697 14.3759C112.05 14.1534 114.024 13.9494 115.209 13.8938L115.209 13.2449C115.209 10.7976 113.855 9.83347 111.938 9.83347C109.851 9.83347 108.742 10.9644 108.648 12.7258L104.944 12.7258C105.114 9.61099 107.426 7.12657 111.938 7.12657C116.449 7.12657 118.837 9.27726 118.837 13.5972L118.856 13.6157ZM115.227 16.3226C114.099 16.3782 112.483 16.5451 111.374 16.7491C108.967 17.1384 108.084 17.8615 108.084 19.3447C108.084 20.8279 109.137 21.7921 111.054 21.7921C112.201 21.7921 113.329 21.4398 114.081 20.6796C114.964 19.7711 115.227 18.8997 115.227 17.1384L115.227 16.3226ZM97.4435 10.4608L97.4435 24.1621L101.203 24.1621L101.203 7.64263L89.0968 7.64263C88.89 19.5456 88.0441 21.5294 85.8634 21.5294C85.6379 21.5294 85.4123 21.4923 85.2431 21.4552L85.2431 24.1621C85.6755 24.2549 86.1266 24.329 86.6906 24.329C90.5255 24.329 92.3678 22.1783 92.631 10.4608L97.4435 10.4608ZM76.5976 15.8946C76.5976 21.2714 73.4394 24.6457 68.345 24.6457C63.2505 24.6457 60.0735 21.2528 60.0735 15.8946C60.0735 10.5364 63.2693 7.14355 68.345 7.14355C73.4206 7.14355 76.5976 10.5364 76.5976 15.8946ZM64.0401 15.8946C64.0401 19.4729 65.6944 21.7163 68.3638 21.7163C71.0332 21.7163 72.6875 19.4729 72.6875 15.8946C72.6875 12.3163 71.0332 10.0729 68.3638 10.0729C65.6944 10.0729 64.0401 12.3163 64.0401 15.8946ZM55.035 29.355L58.7947 29.355L58.7947 21.327L56.5201 21.327L56.5201 7.62566L43.6617 7.62566C43.2294 16.5436 42.4774 19.5657 41.3495 21.327L39.3004 21.327L39.3004 29.355L43.0602 29.355L43.0602 24.1452L55.035 24.1452L55.035 29.355ZM45.598 21.327C46.3311 19.3061 46.9139 16.0986 47.2523 10.4623L52.7603 10.4623L52.7603 21.327L45.598 21.327ZM38.0584 15.8946C38.0584 21.2714 34.9002 24.6457 29.8058 24.6457C24.7113 24.6457 21.5343 21.2528 21.5343 15.8946C21.5343 10.5364 24.7301 7.14355 29.8058 7.14355C34.8814 7.14355 38.0584 10.5364 38.0584 15.8946ZM25.5009 15.8946C25.5009 19.4729 27.1551 21.7163 29.8246 21.7163C32.494 21.7163 34.1483 19.4729 34.1483 15.8946C34.1483 12.3163 32.494 10.0729 29.8246 10.0729C27.1551 10.0729 25.5009 12.3163 25.5009 15.8946ZM20.2578 29.355L16.498 29.355L16.498 24.1452L4.52322 24.1452L4.52322 29.355L0.763472 29.355L0.763473 21.327L2.81254 21.327C3.94046 19.5657 4.6924 16.5436 5.12477 7.62566L17.9831 7.62566L17.9831 21.327L20.2578 21.327L20.2578 29.355ZM8.71535 10.4623C8.37697 16.0986 7.79419 19.3061 7.06105 21.327L14.2234 21.327L14.2234 10.4623L8.71535 10.4623Z" fill="#F4F4F1"/>
</svg>
