<svg width="221" height="53" viewBox="0 0 221 53" fill="none" xmlns="http://www.w3.org/2000/svg">
<path fill-rule="evenodd" clip-rule="evenodd" d="M213.995 13.3974C216.136 13.2504 218.487 13.0195 219.999 12.6206L219.999 9.00952C218.278 9.4504 215.611 9.70234 213.155 9.89129C205.807 10.4791 202.385 13.7543 202.406 25.5531C202.406 32.4813 205.975 36.3442 211.643 36.3442C217.312 36.3442 220.881 32.5862 220.881 26.5399C220.881 20.9134 217.501 17.4493 212.252 17.4493C208.641 17.4493 206.647 19.0448 205.723 21.2493L205.639 21.2493C206.29 16.0217 207.843 13.7962 213.995 13.3974ZM211.622 33.0271C208.536 33.0271 206.731 30.6338 206.731 26.5818C206.731 23.1178 208.011 20.5774 211.517 20.5774C214.604 20.5774 216.451 22.8868 216.451 26.8338C216.451 30.7807 214.709 33.0271 211.622 33.0271ZM198.815 23.8538L198.815 30.8449C198.815 33.0493 199.004 34.6029 199.298 35.7786L195.498 35.7786C195.309 34.9598 195.246 34.0361 195.246 33.1543L195.162 33.1543C193.797 35.1488 191.698 36.1775 188.863 36.1775C184.958 36.1775 182.523 33.8261 182.523 30.614C182.523 27.4018 184.329 25.5753 189.703 24.7146C191.215 24.4626 193.419 24.2317 194.742 24.1687L194.742 23.4339C194.742 20.6626 193.23 19.5709 191.089 19.5709C188.758 19.5709 187.52 20.8516 187.415 22.8461L183.279 22.8461C183.468 19.319 186.05 16.5057 191.089 16.5057C196.127 16.5057 198.794 18.9411 198.794 23.8328L198.815 23.8538ZM194.763 26.919C193.503 26.982 191.698 27.1709 190.459 27.4018C187.772 27.8427 186.785 28.6615 186.785 30.3411C186.785 32.0206 187.961 33.1123 190.102 33.1123C191.383 33.1123 192.642 32.7134 193.482 31.8527C194.469 30.8239 194.763 29.8372 194.763 27.8427L194.763 26.919ZM174.902 20.282L174.902 35.7969L179.101 35.7969L179.101 17.0909L165.581 17.0909C165.35 30.5693 164.405 32.8157 161.97 32.8157C161.718 32.8157 161.466 32.7737 161.277 32.7317L161.277 35.7969C161.76 35.9019 162.264 35.9858 162.893 35.9858C167.176 35.9858 169.234 33.5505 169.528 20.282L174.902 20.282ZM151.621 26.4347C151.621 32.5231 148.094 36.3441 142.405 36.3441C136.715 36.3441 133.167 32.5021 133.167 26.4347C133.167 20.3673 136.736 16.5253 142.405 16.5253C148.073 16.5253 151.621 20.3673 151.621 26.4347ZM137.597 26.4347C137.597 30.4866 139.444 33.0269 142.426 33.0269C145.407 33.0269 147.254 30.4866 147.254 26.4347C147.254 22.3828 145.407 19.8425 142.426 19.8425C139.444 19.8425 137.597 22.3828 137.597 26.4347ZM127.54 41.6767L131.739 41.6767L131.739 32.5861L129.199 32.5861L129.199 17.0713L114.838 17.0713C114.356 27.1696 113.516 30.5917 112.256 32.5861L109.968 32.5861L109.968 41.6767L114.167 41.6767L114.167 35.7773L127.54 35.7773L127.54 41.6767ZM117.001 32.5861C117.82 30.2978 118.47 26.6657 118.848 20.2834L125 20.2834L125 32.5861L117.001 32.5861ZM108.58 26.4347C108.58 32.5231 105.053 36.3441 99.3639 36.3441C93.6744 36.3441 90.1263 32.5021 90.1263 26.4347C90.1263 20.3673 93.6954 16.5253 99.3639 16.5253C105.032 16.5253 108.58 20.3673 108.58 26.4347ZM94.5562 26.4347C94.5562 30.4866 96.4037 33.0269 99.3849 33.0269C102.366 33.0269 104.214 30.4866 104.214 26.4347C104.214 22.3828 102.366 19.8425 99.3849 19.8425C96.4037 19.8425 94.5562 22.3828 94.5562 26.4347ZM88.701 41.6767L84.5021 41.6767L84.5021 35.7773L71.1286 35.7773L71.1286 41.6767L66.9298 41.6767L66.9298 32.5861L69.2182 32.5861C70.4778 30.5917 71.3176 27.1696 71.8005 17.0713L86.1607 17.0713L86.1607 32.5861L88.701 32.5861L88.701 41.6767ZM75.8104 20.2834C75.4325 26.6657 74.7817 30.2978 73.9629 32.5861L81.9618 32.5861L81.9618 20.2834L75.8104 20.2834Z" fill="#F4F4F1"/>
<path fill-rule="evenodd" clip-rule="evenodd" d="M25.5813 0.96582H27.3238V20.101H25.5813V0.96582ZM25.5813 33.0086H27.3238V52.1438H25.5813V33.0086ZM30.4333 31.745L28.9243 32.6162L38.4919 49.1878L40.0009 48.3165L30.4333 31.745ZM12.9043 4.83847L14.4133 3.96722L23.9809 20.5388L22.4719 21.41L12.9043 4.83847ZM32.4929 29.0392L31.6217 30.5483L48.1933 40.1159L49.0645 38.6068L32.4929 29.0392ZM3.85702 14.5191L4.72827 13.0101L21.2998 22.5777L20.4286 24.0867L3.85702 14.5191ZM52.0392 25.684H32.904V27.4265H52.0392V25.684ZM0.863281 25.684H19.9985V27.4265H0.863281V25.684ZM48.1816 13.0217L31.61 22.5893L32.4813 24.0984L49.0528 14.5308L48.1816 13.0217ZM3.86665 38.5805L20.4382 29.0129L21.3095 30.5219L4.7379 40.0895L3.86665 38.5805ZM38.4892 3.94297L28.9215 20.5145L30.4306 21.3858L39.9982 4.81422L38.4892 3.94297ZM12.8919 48.2782L22.4595 31.7066L23.9685 32.5779L14.4009 49.1494L12.8919 48.2782Z" fill="#F4F4F1"/>
</svg>
