<svg width="28" height="29" viewBox="0 0 28 29" fill="none" xmlns="http://www.w3.org/2000/svg">
<path fill-rule="evenodd" clip-rule="evenodd" d="M13.3927 0.8125H14.3236V11.0352H13.3927V0.8125ZM13.3927 17.9309H14.3236V28.1535H13.3927V17.9309ZM15.9848 17.2557L15.1786 17.7211L20.29 26.5742L21.0962 26.1088L15.9848 17.2557ZM6.6202 2.88131L7.42639 2.41586L12.5377 11.269L11.7315 11.7344L6.6202 2.88131ZM17.0851 15.8104L16.6197 16.6166L25.4728 21.7279L25.9382 20.9217L17.0851 15.8104ZM1.78686 8.05333L2.25231 7.24715L11.1054 12.3585L10.64 13.1647L1.78686 8.05333ZM27.5274 14.0177H17.3048V14.9486H27.5274V14.0177ZM0.1875 14.0177H10.4102V14.9486H0.1875V14.0177ZM25.4665 7.25299L16.6134 12.3643L17.0789 13.1705L25.932 8.05918L25.4665 7.25299ZM1.792 20.9073L10.6451 15.796L11.1105 16.6022L2.25745 21.7135L1.792 20.9073ZM20.2885 2.40299L15.1772 11.2561L15.9834 11.7215L21.0947 2.86844L20.2885 2.40299ZM6.61359 26.0882L11.7249 17.2351L12.5311 17.7005L7.41977 26.5536L6.61359 26.0882Z" fill="none"/>
</svg>
