<svg width="163" height="39" viewBox="0 0 163 39" fill="none" xmlns="http://www.w3.org/2000/svg">
<path fill-rule="none" clip-rule="none" d="M157.224 9.68897C158.797 9.58098 160.525 9.41129 161.636 9.11819L161.636 6.46484C160.371 6.7888 158.412 6.97392 156.607 7.11275C151.208 7.54469 148.693 9.95122 148.708 18.6209C148.708 23.7116 151.331 26.5501 155.496 26.5501C159.661 26.5501 162.284 23.7887 162.284 19.3459C162.284 15.2116 159.8 12.6663 155.943 12.6663C153.29 12.6663 151.825 13.8387 151.146 15.4585L151.084 15.4585C151.562 11.6173 152.704 9.98207 157.224 9.68897ZM155.481 24.1127C153.213 24.1127 151.886 22.3541 151.886 19.3768C151.886 16.8314 152.827 14.9648 155.404 14.9648C157.671 14.9648 159.029 16.6617 159.029 19.5619C159.029 22.4621 157.748 24.1127 155.481 24.1127ZM146.07 17.3722L146.07 22.5092C146.07 24.129 146.209 25.2706 146.425 26.1344L143.632 26.1344C143.494 25.5328 143.447 24.854 143.447 24.2061L143.386 24.2061C142.383 25.6716 140.84 26.4275 138.758 26.4275C135.888 26.4275 134.099 24.6998 134.099 22.3395C134.099 19.9793 135.426 18.6372 139.375 18.0047C140.485 17.8196 142.105 17.6499 143.077 17.6036L143.077 17.0637C143.077 15.0274 141.966 14.2252 140.393 14.2252C138.68 14.2252 137.77 15.1662 137.693 16.6318L134.654 16.6318C134.793 14.0401 136.69 11.973 140.393 11.973C144.095 11.973 146.054 13.7624 146.054 17.3568L146.07 17.3722ZM143.092 19.6245C142.167 19.6708 140.84 19.8096 139.93 19.9793C137.955 20.3032 137.23 20.9049 137.23 22.139C137.23 23.3731 138.094 24.1753 139.668 24.1753C140.609 24.1753 141.534 23.8822 142.151 23.2497C142.876 22.4938 143.092 21.7688 143.092 20.3032L143.092 19.6245ZM128.499 14.7477L128.499 26.1479L131.584 26.1479L131.584 12.4029L121.65 12.4029C121.48 22.3067 120.786 23.9573 118.997 23.9573C118.811 23.9573 118.626 23.9265 118.487 23.8956L118.487 26.1479C118.842 26.225 119.212 26.2867 119.675 26.2867C122.822 26.2867 124.334 24.4972 124.55 14.7477L128.499 14.7477ZM111.393 19.2687C111.393 23.7423 108.801 26.5499 104.62 26.5499C100.44 26.5499 97.8327 23.7269 97.8327 19.2687C97.8327 14.8104 100.455 11.9874 104.62 11.9874C108.785 11.9874 111.393 14.8104 111.393 19.2687ZM101.088 19.2687C101.088 22.246 102.445 24.1126 104.636 24.1126C106.826 24.1126 108.184 22.246 108.184 19.2687C108.184 16.2913 106.826 14.4247 104.636 14.4247C102.445 14.4247 101.088 16.2913 101.088 19.2687ZM93.698 30.4683L96.7833 30.4683L96.7833 23.7887L94.9167 23.7887L94.9167 12.3885L84.365 12.3885C84.0102 19.8086 83.3932 22.3231 82.4676 23.7887L80.7861 23.7887L80.7861 30.4683L83.8714 30.4683L83.8714 26.1335L93.698 26.1335L93.698 30.4683ZM85.954 23.7887C86.5556 22.1072 87.0338 19.4384 87.3115 14.7488L91.8314 14.7488L91.8314 23.7887L85.954 23.7887ZM79.7667 19.2687C79.7667 23.7423 77.1751 26.5499 72.9945 26.5499C68.8139 26.5499 66.2069 23.7269 66.2069 19.2686C66.2069 14.8104 68.8294 11.9874 72.9945 11.9874C77.1596 11.9874 79.7667 14.8104 79.7667 19.2687ZM69.4618 19.2686C69.4618 22.246 70.8194 24.1125 73.0099 24.1125C75.2005 24.1125 76.558 22.246 76.558 19.2687C76.558 16.2913 75.2005 14.4247 73.0099 14.4247C70.8194 14.4247 69.4618 16.2913 69.4618 19.2686ZM65.1595 30.4683L62.0742 30.4683L62.0742 26.1335L52.2476 26.1335L52.2476 30.4683L49.1623 30.4683L49.1623 23.7887L50.8438 23.7887C51.7694 22.3231 52.3864 19.8086 52.7412 12.3885L63.2929 12.3885L63.2929 23.7887L65.1595 23.7887L65.1595 30.4683ZM55.6877 14.7488C55.41 19.4384 54.9318 22.1072 54.3302 23.7887L60.2076 23.7887L60.2076 14.7488L55.6877 14.7488Z" fill="none"/>
<path fill-rule="none" clip-rule="none" d="M18.7797 0.554688H20.06V14.615H18.7797V0.554688ZM18.7797 24.0994H20.06V38.1597H18.7797V24.0994ZM22.3449 23.1708L21.2361 23.811L28.2662 35.9876L29.3751 35.3474L22.3449 23.1708ZM9.46475 3.40026L10.5736 2.76008L17.6037 14.9367L16.4949 15.5768L9.46475 3.40026ZM23.8583 21.1827L23.2181 22.2915L35.3947 29.3217L36.0349 28.2129L23.8583 21.1827ZM2.81695 10.5135L3.45714 9.40467L15.6337 16.4348L14.9935 17.5437L2.81695 10.5135ZM38.2206 18.7173H24.1603V19.9976H38.2206V18.7173ZM0.617188 18.7173H14.6775V19.9976H0.617188V18.7173ZM35.3861 9.41322L23.2095 16.4434L23.8497 17.5522L36.0263 10.522L35.3861 9.41322ZM2.82403 28.1935L15.0006 21.1633L15.6408 22.2722L3.46421 29.3023L2.82403 28.1935ZM28.2642 2.74226L21.2341 14.9188L22.3429 15.559L29.373 3.38244L28.2642 2.74226ZM9.45566 35.3192L16.4858 23.1426L17.5946 23.7828L10.5645 35.9594L9.45566 35.3192Z" fill="none"/>
</svg>
