<svg width="39" height="39" viewBox="0 0 39 39" fill="none" xmlns="http://www.w3.org/2000/svg">
<path fill-rule="evenodd" clip-rule="evenodd" d="M18.7797 0.554688H20.06V14.615H18.7797V0.554688ZM18.7797 24.0994H20.06V38.1597H18.7797V24.0994ZM22.3449 23.1708L21.2361 23.811L28.2662 35.9876L29.3751 35.3474L22.3449 23.1708ZM9.46475 3.40026L10.5736 2.76008L17.6037 14.9367L16.4949 15.5768L9.46475 3.40026ZM23.8583 21.1827L23.2181 22.2915L35.3947 29.3217L36.0349 28.2129L23.8583 21.1827ZM2.81695 10.5135L3.45714 9.40467L15.6337 16.4348L14.9935 17.5437L2.81695 10.5135ZM38.2206 18.7173H24.1603V19.9976H38.2206V18.7173ZM0.617188 18.7173H14.6775V19.9976H0.617188V18.7173ZM35.3861 9.41322L23.2095 16.4434L23.8497 17.5522L36.0263 10.522L35.3861 9.41322ZM2.82403 28.1935L15.0006 21.1633L15.6408 22.2722L3.46421 29.3023L2.82403 28.1935ZM28.2642 2.74226L21.2341 14.9188L22.3429 15.559L29.373 3.38244L28.2642 2.74226ZM9.45566 35.3192L16.4858 23.1426L17.5946 23.7828L10.5645 35.9594L9.45566 35.3192Z" fill="none"/>
</svg>
