<svg width="47" height="47" viewBox="0 0 47 47" fill="none" xmlns="http://www.w3.org/2000/svg">
<path fill-rule="evenodd" clip-rule="evenodd" d="M23.2044 0.514648H24.7706V17.7145H23.2044V0.514648ZM23.2044 29.3167H24.7706V46.5166H23.2044V29.3167ZM27.5657 28.1807L26.2093 28.9638L34.8092 43.8593L36.1657 43.0762L27.5657 28.1807ZM11.8095 3.99547L13.1659 3.21234L21.7659 18.1079L20.4094 18.891L11.8095 3.99547ZM29.417 25.7489L28.6339 27.1053L43.5294 35.7053L44.3125 34.3489L29.417 25.7489ZM3.67729 12.6975L4.46042 11.3411L19.356 19.941L18.5728 21.2975L3.67729 12.6975ZM46.9864 22.7327H29.7865V24.2989H46.9864V22.7327ZM0.986328 22.7327H18.1862V24.2989H0.986328V22.7327ZM43.5189 11.3515L28.6234 19.9515L29.4065 21.3079L44.302 12.708L43.5189 11.3515ZM3.68594 34.3247L18.5815 25.7248L19.3646 27.0812L4.46907 35.6811L3.68594 34.3247ZM34.8068 3.19069L26.2068 18.0862L27.5632 18.8694L36.1632 3.97382L34.8068 3.19069ZM11.7984 43.0416L20.3983 28.146L21.7547 28.9292L13.1548 43.8247L11.7984 43.0416Z" fill="none"/>
</svg>
