<svg width="221" height="53" viewBox="0 0 221 53" fill="none" xmlns="http://www.w3.org/2000/svg">
<path fill-rule="evenodd" clip-rule="evenodd" d="M213.654 13.3976C215.795 13.2506 218.147 13.0197 219.658 12.6208L219.658 9.00977C217.937 9.45065 215.27 9.70258 212.814 9.89153C205.466 10.4794 202.044 13.7545 202.065 25.5534C202.065 32.4815 205.634 36.3445 211.302 36.3445C216.971 36.3445 220.54 32.5865 220.54 26.5401C220.54 20.9136 217.16 17.4495 211.911 17.4495C208.3 17.4495 206.306 19.0451 205.382 21.2495L205.298 21.2495C205.949 16.0219 207.503 13.7965 213.654 13.3976ZM211.282 33.0274C208.195 33.0274 206.39 30.634 206.39 26.5821C206.39 23.118 207.67 20.5777 211.177 20.5777C214.263 20.5777 216.11 22.8871 216.11 26.834C216.11 30.781 214.368 33.0274 211.282 33.0274ZM198.474 23.854L198.474 30.8452C198.474 33.0496 198.663 34.6032 198.957 35.7789L195.157 35.7789C194.968 34.9601 194.905 34.0363 194.905 33.1546L194.821 33.1546C193.456 35.149 191.357 36.1777 188.523 36.1777C184.618 36.1777 182.182 33.8264 182.182 30.6142C182.182 27.4021 183.988 25.5756 189.362 24.7148C190.874 24.4629 193.078 24.2319 194.401 24.1689L194.401 23.4341C194.401 20.6629 192.889 19.5712 190.748 19.5712C188.418 19.5712 187.179 20.8518 187.074 22.8463L182.938 22.8463C183.127 19.3192 185.709 16.506 190.748 16.506C195.787 16.506 198.453 18.9413 198.453 23.833L198.474 23.854ZM194.422 26.9192C193.162 26.9822 191.357 27.1711 190.118 27.4021C187.431 27.843 186.444 28.6617 186.444 30.3413C186.444 32.0209 187.62 33.1126 189.761 33.1126C191.042 33.1126 192.302 32.7137 193.141 31.8529C194.128 30.8242 194.422 29.8374 194.422 27.843L194.422 26.9192ZM174.561 20.2823L174.561 35.7971L178.76 35.7971L178.76 17.0911L165.24 17.0911C165.009 30.5695 164.064 32.8159 161.629 32.8159C161.377 32.8159 161.125 32.7739 160.936 32.732L160.936 35.7971C161.419 35.9021 161.923 35.9861 162.553 35.9861C166.836 35.9861 168.893 33.5507 169.187 20.2823L174.561 20.2823ZM151.28 26.4349C151.28 32.5233 147.753 36.3443 142.064 36.3443C136.374 36.3443 132.826 32.5023 132.826 26.4349C132.826 20.3676 136.395 16.5256 142.064 16.5256C147.732 16.5256 151.28 20.3676 151.28 26.4349ZM137.256 26.4349C137.256 30.4869 139.104 33.0272 142.085 33.0272C145.066 33.0272 146.913 30.4869 146.913 26.4349C146.913 22.383 145.066 19.8427 142.085 19.8427C139.104 19.8427 137.256 22.383 137.256 26.4349ZM127.199 41.677L131.397 41.677L131.397 32.5864L128.857 32.5864L128.857 17.0715L114.497 17.0715C114.014 27.1698 113.174 30.5919 111.915 32.5864L109.626 32.5864L109.626 41.677L113.825 41.677L113.825 35.7775L127.199 35.7775L127.199 41.677ZM116.659 32.5864C117.478 30.298 118.129 26.666 118.507 20.2837L124.658 20.2837L124.658 32.5864L116.659 32.5864ZM108.24 26.4349C108.24 32.5233 104.713 36.3443 99.023 36.3443C93.3336 36.3443 89.7855 32.5023 89.7855 26.4349C89.7855 20.3676 93.3546 16.5256 99.023 16.5256C104.692 16.5256 108.24 20.3676 108.24 26.4349ZM94.2153 26.4349C94.2153 30.4869 96.0628 33.0272 99.0441 33.0272C102.025 33.0272 103.873 30.4869 103.873 26.4349C103.873 22.383 102.025 19.8427 99.0441 19.8427C96.0628 19.8427 94.2153 22.383 94.2153 26.4349ZM88.3602 41.677L84.1613 41.677L84.1613 35.7775L70.7878 35.7775L70.7878 41.677L66.5889 41.677L66.5889 32.5864L68.8773 32.5864C70.137 30.5919 70.9768 27.1698 71.4597 17.0715L85.8198 17.0715L85.8198 32.5864L88.3602 32.5864L88.3602 41.677ZM75.4696 20.2837C75.0917 26.666 74.4409 30.298 73.6221 32.5864L81.621 32.5864L81.621 20.2837L75.4696 20.2837Z" fill="#F4F4F1"/>
<path fill-rule="evenodd" clip-rule="evenodd" d="M25.2404 0.966064H26.9829V20.1013H25.2404V0.966064ZM25.2404 33.0089H26.9829V52.1441H25.2404V33.0089ZM30.0925 31.7452L28.5835 32.6164L38.1511 49.188L39.6601 48.3168L30.0925 31.7452ZM12.5634 4.83871L14.0725 3.96746L23.6401 20.539L22.131 21.4103L12.5634 4.83871ZM32.1521 29.0395L31.2809 30.5485L47.8524 40.1161L48.7237 38.6071L32.1521 29.0395ZM3.5162 14.5194L4.38745 13.0103L20.959 22.5779L20.0878 24.087L3.5162 14.5194ZM51.6984 25.6842H32.5632V27.4267H51.6984V25.6842ZM0.522461 25.6842H19.6577V27.4267H0.522461V25.6842ZM47.8408 13.022L31.2692 22.5896L32.1404 24.0986L48.712 14.531L47.8408 13.022ZM3.52583 38.5807L20.0974 29.0131L20.9686 30.5222L4.39708 40.0898L3.52583 38.5807ZM38.1483 3.94321L28.5807 20.5148L30.0898 21.386L39.6574 4.81446L38.1483 3.94321ZM12.5511 48.2784L22.1187 31.7069L23.6277 32.5781L14.0601 49.1497L12.5511 48.2784Z" fill="#F4F4F1"/>
</svg>
