<svg width="321" height="25" viewBox="0 0 321 25" fill="none" xmlns="http://www.w3.org/2000/svg">
<path d="M41.6846 19.8564L41.6846 16.9795L35.0996 16.9795L35.0996 19.8564L33.0312 19.8564L33.0312 15.4228L34.1582 15.4228C34.7785 14.45 35.1919 12.7809 35.4297 7.85547L42.501 7.85547L42.501 15.4228L43.752 15.4228L43.752 19.8564L41.6846 19.8564ZM37.4043 9.42187C37.2182 12.5347 36.8983 14.3067 36.4951 15.4228L40.4336 15.4228L40.4336 9.42187L37.4043 9.42187ZM53.541 12.4228C53.541 15.3924 51.8034 17.2559 49.002 17.2559C46.2008 17.2556 44.4542 15.382 44.4541 12.4228C44.4541 9.46365 46.211 7.59005 49.002 7.58984C51.7931 7.58984 53.541 9.46348 53.541 12.4228ZM51.3906 12.4228C51.3906 10.4465 50.4807 9.20703 49.0127 9.20703C47.5448 9.20707 46.6348 10.4466 46.6348 12.4228C46.6348 14.399 47.5448 15.6377 49.0127 15.6377C50.4806 15.6377 51.3906 14.3991 51.3906 12.4228ZM62.876 19.8564L62.876 16.9795L56.291 16.9795L56.291 19.8564L54.2236 19.8564L54.2236 15.4228L55.3506 15.4228C55.9708 14.45 56.3843 12.7807 56.6221 7.85547L63.6924 7.85547L63.6924 15.4228L64.9434 15.4228L64.9434 19.8564L62.876 19.8564ZM58.5967 9.42187C58.4106 12.5348 58.0897 14.3067 57.6865 15.4228L61.625 15.4228L61.625 9.42187L58.5967 9.42187ZM74.7344 12.4229C74.7343 15.3922 72.9975 17.2557 70.1963 17.2559C67.3948 17.2559 65.6475 15.3821 65.6475 12.4228C65.6475 9.46348 67.4051 7.58984 70.1963 7.58984C72.9872 7.59002 74.7344 9.46362 74.7344 12.4229ZM72.584 12.4228C72.584 10.4465 71.674 9.20703 70.2061 9.20703C68.7382 9.20713 67.8281 10.4466 67.8281 12.4228C67.8282 14.399 68.7382 15.6376 70.2061 15.6377C71.674 15.6377 72.5839 14.3991 72.584 12.4228ZM86.1982 16.9893L86.1982 9.42187L83.5518 9.42187C83.407 15.8928 82.3937 17.0809 80.2852 17.0811C79.975 17.0811 79.726 17.0405 79.4883 16.9893L79.4883 15.4941C79.5813 15.5146 79.706 15.5352 79.8301 15.5352C81.0291 15.535 81.4947 14.4387 81.6084 7.86523L88.2656 7.86523L88.2656 16.9893L86.1982 16.9893ZM96.3389 16.9795C96.2459 16.5803 96.2149 16.13 96.2148 15.7002L96.1738 15.7002C95.5019 16.6729 94.4678 17.1748 93.0723 17.1748C91.1496 17.1748 89.9502 16.0276 89.9502 14.4609C89.9502 12.8942 90.8399 12.0028 93.4863 11.583C94.2306 11.4602 95.3156 11.3481 95.9668 11.3174L95.9668 10.959C95.9668 9.6073 95.2224 9.07422 94.168 9.07422C93.0207 9.0743 92.4111 9.69925 92.3594 10.6719L90.3223 10.6719C90.4154 8.95168 91.6871 7.57919 94.168 7.5791C96.649 7.5791 97.9619 8.7674 97.9619 11.1533L97.9727 11.1641L97.9727 14.5732C97.9727 15.6482 98.0653 16.4061 98.21 16.9795L96.3389 16.9795ZM95.9775 12.6582C95.3574 12.6889 94.4683 12.7819 93.8584 12.8945C92.5352 13.1096 92.0488 13.5089 92.0488 14.3281C92.049 15.1471 92.6283 15.6797 93.6826 15.6797C94.313 15.6796 94.9332 15.4851 95.3467 15.0654C95.8325 14.5637 95.9775 14.082 95.9775 13.1094L95.9775 12.6582ZM108.838 12.4736C108.838 15.4228 107.08 17.2559 104.289 17.2559C101.498 17.2557 99.7412 15.3713 99.7412 11.9922C99.7309 6.23779 101.415 4.64033 105.033 4.35352C106.242 4.26137 107.556 4.13878 108.403 3.92383L108.403 5.68457C107.659 5.87906 106.501 5.99181 105.447 6.06348C102.418 6.25804 101.653 7.34379 101.333 9.89355L101.374 9.89355C101.829 8.81841 102.811 8.04012 104.589 8.04004C107.173 8.04004 108.838 9.72939 108.838 12.4736ZM106.656 12.6172C106.656 10.6921 105.747 9.56553 104.228 9.56543C102.501 9.56543 101.87 10.8046 101.87 12.4941C101.87 14.4705 102.76 15.6377 104.279 15.6377C105.799 15.6376 106.656 14.5422 106.656 12.6172Z" fill="#F4F4F1"/>
<path d="M13.5293 24.9619H12.6709V15.6289H13.5293V24.9619ZM19.7715 23.0957L19.0283 23.5205L14.3174 15.4375L15.0605 15.0127L19.7715 23.0957ZM11.877 15.4189L7.16602 23.502L6.42285 23.0762L11.1338 14.9941L11.877 15.4189ZM24.2344 18.3594L23.8057 19.0957L15.6455 14.4287L16.0742 13.6924L24.2344 18.3594ZM10.5674 14.416L2.4082 19.082L1.97852 18.3467L10.1387 13.6797L10.5674 14.416ZM9.92188 12.9062H0.5V12.0566H9.92188V12.9062ZM25.6992 12.9062H16.2773V12.0566H25.6992V12.9062ZM24.2285 6.61621L16.0684 11.2832L15.6396 10.5469L23.7998 5.87988L24.2285 6.61621ZM10.5635 10.541L10.1338 11.2773L1.97461 6.61035L2.40332 5.875L10.5635 10.541ZM11.8828 9.54688L11.1406 9.97168L6.42871 1.88867L7.17188 1.46387L11.8828 9.54688ZM19.7705 1.87695L15.0596 9.95996L14.3164 9.53516L19.0273 1.45215L19.7705 1.87695ZM13.5293 9.33301H12.6709V0H13.5293V9.33301Z" fill="#F4F4F1"/>
<path d="M112.144 18.1006H109.81V15.5898H112.144V18.1006ZM127.822 16.5623V20.9296H125.806V18.1006H119.388V20.9296H117.372V16.5623H118.468C119.069 15.6075 119.476 13.9631 119.706 9.1184H126.602V16.5623H127.822ZM124.586 10.6567H121.633C121.456 13.7156 121.138 15.466 120.749 16.5623H124.586V10.6567ZM133.132 8.85317C135.854 8.85317 137.552 10.692 137.552 13.6095C137.552 16.5269 135.854 18.3658 133.132 18.3658C130.409 18.3658 128.693 16.5269 128.693 13.6095C128.693 10.692 130.409 8.85317 133.132 8.85317ZM133.132 10.4445C131.699 10.4445 130.815 11.6645 130.815 13.6095C130.815 15.5545 131.699 16.7745 133.132 16.7745C134.564 16.7745 135.448 15.5545 135.448 13.6095C135.448 11.6645 134.564 10.4445 133.132 10.4445ZM148.646 16.5623V20.9296H146.63V18.1006H140.212V20.9296H138.196V16.5623H139.292C139.893 15.6075 140.3 13.9631 140.53 9.1184H147.426V16.5623H148.646ZM145.41 10.6567H142.457C142.28 13.7156 141.962 15.466 141.573 16.5623H145.41V10.6567ZM153.956 8.85317C156.679 8.85317 158.376 10.692 158.376 13.6095C158.376 16.5269 156.679 18.3658 153.956 18.3658C151.233 18.3658 149.518 16.5269 149.518 13.6095C149.518 10.692 151.233 8.85317 153.956 8.85317ZM153.956 10.4445C152.523 10.4445 151.639 11.6645 151.639 13.6095C151.639 15.5545 152.523 16.7745 153.956 16.7745C155.388 16.7745 156.272 15.5545 156.272 13.6095C156.272 11.6645 155.388 10.4445 153.956 10.4445ZM172.32 18.1006H170.304V10.6567H166.432V18.1006H164.416V9.1184H172.32V18.1006ZM183.738 18.1006H181.705V14.7057C181.705 13.4504 181.74 12.1773 181.793 10.9219H181.758C181.227 12.0889 180.609 13.2912 179.954 14.4582L177.886 18.1006H174.897V9.1184H176.931V12.5309C176.931 13.7686 176.895 15.0417 176.825 16.2971H176.86C177.408 15.1301 178.027 13.9278 178.681 12.7608L180.75 9.1184H183.738V18.1006ZM194.232 16.5623H195.452V20.9296H193.436V18.1006H186.328V9.1184H188.344V16.5623H192.216V9.1184H194.232V16.5623ZM204.834 16.5623H206.054V20.9296H204.038V18.1006H196.93V9.1184H198.946V16.5623H202.818V9.1184H204.834V16.5623ZM210.892 8.85317C213.261 8.85317 214.587 10.0202 214.587 12.3718V15.7313C214.587 16.7922 214.675 17.5348 214.817 18.1006H212.996C212.907 17.7116 212.872 17.2696 212.872 16.8452H212.837C212.182 17.8 211.175 18.2951 209.813 18.2951C207.939 18.2951 206.772 17.1635 206.772 15.6252C206.772 14.1576 207.638 13.2028 210.22 12.7961C210.945 12.6724 212.006 12.5663 212.642 12.5309V12.1773C212.642 10.8512 211.917 10.3207 210.892 10.3207C209.778 10.3207 209.177 10.9396 209.123 11.8944H207.143C207.232 10.197 208.469 8.85317 210.892 8.85317ZM212.642 14.2814V13.8394C212.041 13.8747 211.175 13.9631 210.573 14.0692C209.283 14.2814 208.805 14.6704 208.805 15.4837C208.805 16.2794 209.371 16.8098 210.397 16.8098C211.015 16.8098 211.617 16.6153 212.023 16.2087C212.501 15.7136 212.642 15.2362 212.642 14.2814ZM225.109 18.1006H223.093V14.3344H219.079V18.1006H217.064V9.1184H219.079V12.7961H223.093V9.1184H225.109V18.1006ZM229.699 12.2303H231.785C234.084 12.2303 235.321 13.2912 235.321 15.1655C235.321 17.0397 234.084 18.1006 231.785 18.1006H227.683V9.1184H229.699V12.2303ZM238.628 18.1006H236.612V9.1184H238.628V18.1006ZM229.699 13.7333V16.5977H231.573C232.704 16.5977 233.288 16.1379 233.288 15.1655C233.288 14.2107 232.704 13.7333 231.573 13.7333H229.699ZM250.468 20.9296H248.452V18.1006H247.232V14.3344H243.219V18.1006H241.203V9.1184H243.219V12.7961H247.232V9.1184H249.248V16.5623H250.468V20.9296ZM267.706 18.1006H265.23L262.154 13.4504H262.118V18.1006H260.138V13.4504H260.102L257.026 18.1006H254.551L258.14 13.2205L254.922 9.1184H257.22L260.102 13.0967H260.138V9.1184H262.118V13.0967H262.154L265.036 9.1184H267.334L264.116 13.2205L267.706 18.1006ZM272.149 8.85317C274.872 8.85317 276.569 10.692 276.569 13.6095C276.569 16.5269 274.872 18.3658 272.149 18.3658C269.426 18.3658 267.711 16.5269 267.711 13.6095C267.711 10.692 269.426 8.85317 272.149 8.85317ZM272.149 10.4445C270.716 10.4445 269.832 11.6645 269.832 13.6095C269.832 15.5545 270.716 16.7745 272.149 16.7745C273.581 16.7745 274.465 15.5545 274.465 13.6095C274.465 11.6645 273.581 10.4445 272.149 10.4445ZM286.611 5.24615V6.97894C285.886 7.17343 284.754 7.27952 283.729 7.35025C280.776 7.54475 280.033 8.60563 279.715 11.1164H279.75C280.192 10.0555 281.147 9.29521 282.88 9.29521C285.408 9.29521 287.035 10.9573 287.035 13.6625C287.035 16.5623 285.32 18.3658 282.597 18.3658C279.786 18.3658 278.159 16.5093 278.159 13.1851C278.159 7.52706 279.803 5.95341 283.322 5.67051C284.507 5.5821 285.78 5.45833 286.611 5.24615ZM282.544 10.7981C280.864 10.7981 280.245 12.0182 280.245 13.6802C280.245 15.6252 281.112 16.7745 282.597 16.7745C284.064 16.7745 284.913 15.6959 284.913 13.804C284.913 11.9121 284.029 10.7981 282.544 10.7981ZM292.444 8.85317C294.813 8.85317 296.139 10.0202 296.139 12.3718V15.7313C296.139 16.7922 296.228 17.5348 296.369 18.1006H294.548C294.46 17.7116 294.424 17.2696 294.424 16.8452H294.389C293.735 17.8 292.727 18.2951 291.365 18.2951C289.491 18.2951 288.324 17.1635 288.324 15.6252C288.324 14.1576 289.191 13.2028 291.772 12.7961C292.497 12.6724 293.558 12.5663 294.194 12.5309V12.1773C294.194 10.8512 293.47 10.3207 292.444 10.3207C291.33 10.3207 290.729 10.9396 290.676 11.8944H288.696C288.784 10.197 290.022 8.85317 292.444 8.85317ZM294.194 14.2814V13.8394C293.593 13.8747 292.727 13.9631 292.126 14.0692C290.835 14.2814 290.358 14.6704 290.358 15.4837C290.358 16.2794 290.923 16.8098 291.949 16.8098C292.568 16.8098 293.169 16.6153 293.576 16.2087C294.053 15.7136 294.194 15.2362 294.194 14.2814ZM302.364 8.85317C304.663 8.85317 306.237 10.3207 306.413 12.3718H304.309C304.221 11.2048 303.461 10.4445 302.364 10.4445C300.95 10.4445 300.119 11.6468 300.119 13.6095C300.119 15.5721 300.95 16.7745 302.364 16.7745C303.461 16.7745 304.203 15.9081 304.292 14.6881H306.413C306.237 16.8629 304.681 18.3658 302.364 18.3658C299.712 18.3658 297.997 16.5269 297.997 13.6095C297.997 10.692 299.712 8.85317 302.364 8.85317ZM310.318 12.2303H312.405C314.703 12.2303 315.941 13.2912 315.941 15.1655C315.941 17.0397 314.703 18.1006 312.405 18.1006H308.303V9.1184H310.318V12.2303ZM319.248 18.1006H317.232V9.1184H319.248V18.1006ZM310.318 13.7333V16.5977H312.193C313.324 16.5977 313.908 16.1379 313.908 15.1655C313.908 14.2107 313.324 13.7333 312.193 13.7333H310.318Z" fill="#F4F4F1"/>
</svg>
