<svg width="321" height="25" viewBox="0 0 321 25" fill="none" xmlns="http://www.w3.org/2000/svg">
<path fill-rule="evenodd" clip-rule="evenodd" d="M105.447 6.06351C106.502 5.99183 107.659 5.87919 108.404 5.68463L108.404 3.92335C107.556 4.13839 106.243 4.26127 105.034 4.35343C101.415 4.64015 99.7304 6.2376 99.7408 11.9925C99.7408 15.3717 101.498 17.2559 104.289 17.2559C107.081 17.2559 108.838 15.4229 108.838 12.4738C108.838 9.72945 107.174 8.03984 104.589 8.03984C102.811 8.03984 101.829 8.81808 101.374 9.89329L101.333 9.89329C101.653 7.34352 102.418 6.25808 105.447 6.06351ZM104.279 15.6379C102.759 15.6379 101.87 14.4706 101.87 12.4943C101.87 10.8047 102.501 9.56561 104.227 9.56561C105.747 9.56561 106.657 10.692 106.657 12.6171C106.657 14.5423 105.799 15.6379 104.279 15.6379ZM97.9725 11.1636L97.9725 14.5735C97.9725 15.6487 98.0655 16.4065 98.2103 16.9799L96.3391 16.9799C96.2461 16.5806 96.2151 16.13 96.2151 15.6999L96.1737 15.6999C95.5018 16.6727 94.468 17.1745 93.0724 17.1745C91.1496 17.1745 89.9504 16.0276 89.9504 14.4609C89.9504 12.8941 90.8394 12.0033 93.4859 11.5834C94.2302 11.4605 95.3157 11.3479 95.967 11.3172L95.967 10.9588C95.967 9.60709 95.2226 9.07461 94.1682 9.07461C93.0207 9.07461 92.4108 9.69925 92.3591 10.6721L90.3226 10.6721C90.4156 8.95173 91.6871 7.57956 94.1682 7.57956C96.6493 7.57956 97.9621 8.76741 97.9621 11.1533L97.9725 11.1636ZM95.9773 12.6586C95.357 12.6893 94.468 12.7815 93.8581 12.8941C92.5348 13.1092 92.049 13.5085 92.049 14.3277C92.049 15.1469 92.6279 15.6794 93.6823 15.6794C94.3129 15.6794 94.9332 15.4849 95.3467 15.065C95.8326 14.5633 95.9773 14.082 95.9773 13.1092L95.9773 12.6586ZM86.1979 9.42146L86.1979 16.9888L88.2654 16.9888L88.2654 7.86498L81.6079 7.86498C81.4942 14.4391 81.029 15.5348 79.8298 15.5348C79.7058 15.5348 79.5817 15.5143 79.4887 15.4938L79.4887 16.9888C79.7265 17.04 79.9746 17.081 80.2847 17.081C82.3936 17.081 83.4067 15.8932 83.5514 9.42146L86.1979 9.42146ZM74.7342 12.4227C74.7342 15.3923 72.9974 17.256 70.1959 17.256C67.3944 17.256 65.6473 15.382 65.6473 12.4227C65.6473 9.46331 67.4047 7.58938 70.1959 7.58938C72.9871 7.58938 74.7342 9.46331 74.7342 12.4227ZM67.8285 12.4227C67.8285 14.399 68.7383 15.638 70.2062 15.638C71.6742 15.638 72.5839 14.399 72.5839 12.4227C72.5839 10.4464 71.6742 9.20731 70.2062 9.20731C68.7383 9.20731 67.8285 10.4464 67.8285 12.4227ZM62.8762 19.8568L64.9437 19.8568L64.9437 15.4229L63.6929 15.4229L63.6929 7.8555L56.6218 7.8555C56.3841 12.781 55.9706 14.4501 55.3503 15.4229L54.2235 15.4229L54.2235 19.8568L56.291 19.8568L56.291 16.9794L62.8762 16.9794L62.8762 19.8568ZM57.6866 15.4229C58.0898 14.3067 58.4103 12.5352 58.5964 9.42222L61.6253 9.42222L61.6253 15.4229L57.6866 15.4229ZM53.5407 12.4227C53.5407 15.3923 51.804 17.256 49.0024 17.256C46.2009 17.256 44.4538 15.382 44.4538 12.4227C44.4538 9.46331 46.2112 7.58938 49.0024 7.58938C51.7936 7.58938 53.5407 9.46331 53.5407 12.4227ZM46.6351 12.4227C46.6351 14.399 47.5448 15.638 49.0128 15.638C50.4807 15.638 51.3904 14.399 51.3904 12.4227C51.3904 10.4464 50.4807 9.20731 49.0128 9.20731C47.5448 9.20731 46.6351 10.4464 46.6351 12.4227ZM43.752 19.8568L41.6844 19.8568L41.6844 16.9794L35.0993 16.9794L35.0993 19.8568L33.0317 19.8568L33.0317 15.4229L34.1585 15.4229C34.7788 14.4501 35.1923 12.781 35.4301 7.8555L42.5011 7.8555L42.5011 15.4229L43.752 15.4229L43.752 19.8568ZM37.4046 9.42222C37.2185 12.5352 36.898 14.3067 36.4949 15.4229L40.4336 15.4229L40.4336 9.42222L37.4046 9.42222Z" fill="#111110"/>
<path fill-rule="evenodd" clip-rule="evenodd" d="M12.6712 0H13.5293V9.3332H12.6712V0ZM12.6712 15.6287H13.5293V24.9619H12.6712V15.6287ZM15.0604 15.0125L14.3174 15.4374L19.0285 23.5202L19.7716 23.0953L15.0604 15.0125ZM6.42904 1.88888L7.1721 1.46393L11.8832 9.54672L11.1402 9.97167L6.42904 1.88888ZM16.0746 13.6928L15.6456 14.4288L23.8055 19.0954L24.2345 18.3594L16.0746 13.6928ZM1.97413 6.61058L2.40314 5.87454L10.5631 10.5411L10.1341 11.2772L1.97413 6.61058ZM25.6993 12.0565H16.277V12.9064H25.6993V12.0565ZM0.5 12.0565H9.92226V12.9064H0.5V12.0565ZM23.7997 5.88019L15.6398 10.5468L16.0688 11.2828L24.2288 6.61623L23.7997 5.88019ZM1.97887 18.3464L10.1388 13.6798L10.5678 14.4159L2.40788 19.0825L1.97887 18.3464ZM19.0272 1.45201L14.316 9.53481L15.0591 9.95976L19.7702 1.87696L19.0272 1.45201ZM6.42294 23.0766L11.1341 14.9938L11.8771 15.4187L7.166 23.5015L6.42294 23.0766Z" fill="#111110"/>
<path d="M112.144 18.1006H109.81V15.5898H112.144V18.1006ZM127.822 16.5623V20.9296H125.806V18.1006H119.388V20.9296H117.372V16.5623H118.468C119.069 15.6075 119.476 13.9631 119.706 9.1184H126.602V16.5623H127.822ZM124.586 10.6567H121.633C121.456 13.7156 121.138 15.466 120.749 16.5623H124.586V10.6567ZM133.132 8.85317C135.854 8.85317 137.552 10.692 137.552 13.6095C137.552 16.5269 135.854 18.3658 133.132 18.3658C130.409 18.3658 128.693 16.5269 128.693 13.6095C128.693 10.692 130.409 8.85317 133.132 8.85317ZM133.132 10.4445C131.699 10.4445 130.815 11.6645 130.815 13.6095C130.815 15.5545 131.699 16.7745 133.132 16.7745C134.564 16.7745 135.448 15.5545 135.448 13.6095C135.448 11.6645 134.564 10.4445 133.132 10.4445ZM148.646 16.5623V20.9296H146.63V18.1006H140.212V20.9296H138.196V16.5623H139.292C139.893 15.6075 140.3 13.9631 140.53 9.1184H147.426V16.5623H148.646ZM145.41 10.6567H142.457C142.28 13.7156 141.962 15.466 141.573 16.5623H145.41V10.6567ZM153.956 8.85317C156.679 8.85317 158.376 10.692 158.376 13.6095C158.376 16.5269 156.679 18.3658 153.956 18.3658C151.233 18.3658 149.518 16.5269 149.518 13.6095C149.518 10.692 151.233 8.85317 153.956 8.85317ZM153.956 10.4445C152.523 10.4445 151.639 11.6645 151.639 13.6095C151.639 15.5545 152.523 16.7745 153.956 16.7745C155.388 16.7745 156.272 15.5545 156.272 13.6095C156.272 11.6645 155.388 10.4445 153.956 10.4445ZM172.32 18.1006H170.304V10.6567H166.432V18.1006H164.416V9.1184H172.32V18.1006ZM183.738 18.1006H181.705V14.7057C181.705 13.4504 181.74 12.1773 181.793 10.9219H181.758C181.227 12.0889 180.609 13.2912 179.954 14.4582L177.886 18.1006H174.897V9.1184H176.931V12.5309C176.931 13.7686 176.895 15.0417 176.825 16.2971H176.86C177.408 15.1301 178.027 13.9278 178.681 12.7608L180.75 9.1184H183.738V18.1006ZM194.232 16.5623H195.452V20.9296H193.436V18.1006H186.328V9.1184H188.344V16.5623H192.216V9.1184H194.232V16.5623ZM204.834 16.5623H206.054V20.9296H204.038V18.1006H196.93V9.1184H198.946V16.5623H202.818V9.1184H204.834V16.5623ZM210.892 8.85317C213.261 8.85317 214.587 10.0202 214.587 12.3718V15.7313C214.587 16.7922 214.675 17.5348 214.817 18.1006H212.996C212.907 17.7116 212.872 17.2696 212.872 16.8452H212.837C212.182 17.8 211.175 18.2951 209.813 18.2951C207.939 18.2951 206.772 17.1635 206.772 15.6252C206.772 14.1576 207.638 13.2028 210.22 12.7961C210.945 12.6724 212.006 12.5663 212.642 12.5309V12.1773C212.642 10.8512 211.917 10.3207 210.892 10.3207C209.778 10.3207 209.177 10.9396 209.123 11.8944H207.143C207.232 10.197 208.469 8.85317 210.892 8.85317ZM212.642 14.2814V13.8394C212.041 13.8747 211.175 13.9631 210.573 14.0692C209.283 14.2814 208.805 14.6704 208.805 15.4837C208.805 16.2794 209.371 16.8098 210.397 16.8098C211.015 16.8098 211.617 16.6153 212.023 16.2087C212.501 15.7136 212.642 15.2362 212.642 14.2814ZM225.109 18.1006H223.093V14.3344H219.079V18.1006H217.064V9.1184H219.079V12.7961H223.093V9.1184H225.109V18.1006ZM229.699 12.2303H231.785C234.084 12.2303 235.321 13.2912 235.321 15.1655C235.321 17.0397 234.084 18.1006 231.785 18.1006H227.683V9.1184H229.699V12.2303ZM238.628 18.1006H236.612V9.1184H238.628V18.1006ZM229.699 13.7333V16.5977H231.573C232.704 16.5977 233.288 16.1379 233.288 15.1655C233.288 14.2107 232.704 13.7333 231.573 13.7333H229.699ZM250.468 20.9296H248.452V18.1006H247.232V14.3344H243.219V18.1006H241.203V9.1184H243.219V12.7961H247.232V9.1184H249.248V16.5623H250.468V20.9296ZM267.706 18.1006H265.23L262.154 13.4504H262.118V18.1006H260.138V13.4504H260.102L257.026 18.1006H254.551L258.14 13.2205L254.922 9.1184H257.22L260.102 13.0967H260.138V9.1184H262.118V13.0967H262.154L265.036 9.1184H267.334L264.116 13.2205L267.706 18.1006ZM272.149 8.85317C274.872 8.85317 276.569 10.692 276.569 13.6095C276.569 16.5269 274.872 18.3658 272.149 18.3658C269.426 18.3658 267.711 16.5269 267.711 13.6095C267.711 10.692 269.426 8.85317 272.149 8.85317ZM272.149 10.4445C270.716 10.4445 269.832 11.6645 269.832 13.6095C269.832 15.5545 270.716 16.7745 272.149 16.7745C273.581 16.7745 274.465 15.5545 274.465 13.6095C274.465 11.6645 273.581 10.4445 272.149 10.4445ZM286.611 5.24615V6.97894C285.886 7.17343 284.754 7.27952 283.729 7.35025C280.776 7.54475 280.033 8.60563 279.715 11.1164H279.75C280.192 10.0555 281.147 9.29521 282.88 9.29521C285.408 9.29521 287.035 10.9573 287.035 13.6625C287.035 16.5623 285.32 18.3658 282.597 18.3658C279.786 18.3658 278.159 16.5093 278.159 13.1851C278.159 7.52706 279.803 5.95341 283.322 5.67051C284.507 5.5821 285.78 5.45833 286.611 5.24615ZM282.544 10.7981C280.864 10.7981 280.245 12.0182 280.245 13.6802C280.245 15.6252 281.112 16.7745 282.597 16.7745C284.064 16.7745 284.913 15.6959 284.913 13.804C284.913 11.9121 284.029 10.7981 282.544 10.7981ZM292.444 8.85317C294.813 8.85317 296.139 10.0202 296.139 12.3718V15.7313C296.139 16.7922 296.228 17.5348 296.369 18.1006H294.548C294.46 17.7116 294.424 17.2696 294.424 16.8452H294.389C293.735 17.8 292.727 18.2951 291.365 18.2951C289.491 18.2951 288.324 17.1635 288.324 15.6252C288.324 14.1576 289.191 13.2028 291.772 12.7961C292.497 12.6724 293.558 12.5663 294.194 12.5309V12.1773C294.194 10.8512 293.47 10.3207 292.444 10.3207C291.33 10.3207 290.729 10.9396 290.676 11.8944H288.696C288.784 10.197 290.022 8.85317 292.444 8.85317ZM294.194 14.2814V13.8394C293.593 13.8747 292.727 13.9631 292.126 14.0692C290.835 14.2814 290.358 14.6704 290.358 15.4837C290.358 16.2794 290.923 16.8098 291.949 16.8098C292.568 16.8098 293.169 16.6153 293.576 16.2087C294.053 15.7136 294.194 15.2362 294.194 14.2814ZM302.364 8.85317C304.663 8.85317 306.237 10.3207 306.413 12.3718H304.309C304.221 11.2048 303.461 10.4445 302.364 10.4445C300.95 10.4445 300.119 11.6468 300.119 13.6095C300.119 15.5721 300.95 16.7745 302.364 16.7745C303.461 16.7745 304.203 15.9081 304.292 14.6881H306.413C306.237 16.8629 304.681 18.3658 302.364 18.3658C299.712 18.3658 297.997 16.5269 297.997 13.6095C297.997 10.692 299.712 8.85317 302.364 8.85317ZM310.318 12.2303H312.405C314.703 12.2303 315.941 13.2912 315.941 15.1655C315.941 17.0397 314.703 18.1006 312.405 18.1006H308.303V9.1184H310.318V12.2303ZM319.248 18.1006H317.232V9.1184H319.248V18.1006ZM310.318 13.7333V16.5977H312.193C313.324 16.5977 313.908 16.1379 313.908 15.1655C313.908 14.2107 313.324 13.7333 312.193 13.7333H310.318Z" fill="#111110"/>
</svg>
