<svg width="478" height="38" viewBox="0 0 478 38" fill="none" xmlns="http://www.w3.org/2000/svg">
<path d="M61.457 29.6309L61.457 25.3369L51.6309 25.3369L51.6309 29.6309L48.5449 29.6309L48.5449 23.0146L50.2266 23.0146C51.1521 21.563 51.7692 19.0723 52.124 11.7227L62.6758 11.7227L62.6758 23.0146L64.542 23.0146L64.542 29.6309L61.457 29.6309ZM55.0703 14.0605C54.7926 18.7056 54.3145 21.3491 53.7129 23.0146L59.5908 23.0146L59.5908 14.0605L55.0703 14.0605ZM79.1494 18.5371C79.1494 22.9685 76.5575 25.75 72.377 25.75C68.1967 25.7498 65.5898 22.953 65.5898 18.5371C65.59 14.1214 68.2122 11.3254 72.377 11.3252C76.542 11.3252 79.1493 14.1212 79.1494 18.5371ZM75.9414 18.5371C75.9413 15.5881 74.5831 13.7393 72.3926 13.7393C70.2023 13.7394 68.8448 15.5883 68.8447 18.5371C68.8447 21.4861 70.2022 23.3358 72.3926 23.3359C74.5831 23.3359 75.9414 21.4863 75.9414 18.5371ZM93.0801 29.6309L93.0801 25.3369L83.2539 25.3369L83.2539 29.6309L80.1689 29.6309L80.1689 23.0146L81.8496 23.0146C82.7752 21.563 83.3923 19.0723 83.7471 11.7227L94.2988 11.7227L94.2988 23.0146L96.166 23.0146L96.166 29.6309L93.0801 29.6309ZM86.6943 14.0605C86.4167 18.7056 85.9376 21.3491 85.3359 23.0146L91.2139 23.0146L91.2139 14.0605L86.6943 14.0605ZM110.775 18.5371C110.775 22.9685 108.183 25.75 104.003 25.75C99.8226 25.7499 97.2158 22.9531 97.2158 18.5371C97.2159 14.1213 99.8381 11.3253 104.003 11.3252C108.168 11.3252 110.775 14.1212 110.775 18.5371ZM107.566 18.5371C107.566 15.5881 106.209 13.7393 104.019 13.7393C101.828 13.7393 100.471 15.5882 100.471 18.5371C100.471 21.4862 101.828 23.3359 104.019 23.3359C106.209 23.3359 107.566 21.4863 107.566 18.5371ZM127.882 25.3516L127.882 14.0596L123.933 14.0596C123.717 23.7162 122.205 25.4891 119.059 25.4893C118.596 25.4893 118.225 25.428 117.87 25.3516L117.87 23.1211C118.009 23.1517 118.195 23.1816 118.38 23.1816C120.169 23.1814 120.864 21.5457 121.033 11.7363L130.968 11.7363L130.968 25.3516L127.882 25.3516ZM143.016 25.3379C142.877 24.742 142.83 24.0694 142.83 23.4277L142.769 23.4277C141.766 24.8794 140.223 25.6289 138.141 25.6289C135.271 25.6289 133.481 23.917 133.481 21.5791C133.482 19.2413 134.809 17.9116 138.758 17.2852C139.869 17.1018 141.488 16.9335 142.46 16.8877L142.46 16.3535C142.46 14.3365 141.349 13.542 139.775 13.542C138.063 13.5421 137.153 14.4742 137.076 15.9258L134.037 15.9258C134.176 13.3587 136.073 11.3107 139.775 11.3105C143.478 11.3105 145.437 13.0832 145.437 16.6436L145.453 16.6592L145.453 21.7471C145.453 23.3513 145.592 24.4822 145.808 25.3379L143.016 25.3379ZM142.476 18.8896C141.55 18.9355 140.223 19.0731 139.312 19.2412C137.338 19.5621 136.613 20.1585 136.613 21.3809C136.613 22.6032 137.477 23.3975 139.051 23.3975C139.992 23.3974 140.917 23.107 141.534 22.4805C142.259 21.7318 142.476 21.0139 142.476 19.5625L142.476 18.8896ZM161.667 18.6143C161.667 23.0149 159.044 25.75 154.879 25.75C150.714 25.75 148.092 22.9381 148.092 17.8955C148.076 9.3082 150.59 6.92404 155.989 6.49609C157.794 6.35857 159.754 6.17536 161.019 5.85449L161.019 8.48242C159.908 8.77275 158.18 8.94089 156.606 9.04785C152.087 9.33823 150.945 10.9589 150.467 14.7637L150.528 14.7637C151.207 13.1592 152.673 11.9971 155.326 11.9971C159.183 11.9971 161.667 14.5191 161.667 18.6143ZM158.412 18.8281C158.412 15.9554 157.054 14.2744 154.786 14.2744C152.21 14.2746 151.27 16.1233 151.27 18.6445C151.27 21.5935 152.596 23.3358 154.863 23.3359C157.131 23.3359 158.412 21.7007 158.412 18.8281Z" fill="#F4F4F1"/>
<path d="M19.4424 37.25H18.1621V23.3223H19.4424V37.25ZM28.7578 34.4639L27.6494 35.0977L20.6191 23.0361L21.7275 22.4023L28.7578 34.4639ZM16.9775 23.0088L9.94727 35.0703L8.83887 34.4355L15.8682 22.374L16.9775 23.0088ZM35.418 27.3965L34.7773 28.4951L22.6006 21.5312L23.2412 20.4326L35.418 27.3965ZM15.0234 21.5127L2.84668 28.4756L2.20703 27.3779L14.3838 20.4141L15.0234 21.5127ZM14.0605 19.2588H0V17.9912H14.0605V19.2588ZM37.6035 19.2588H23.543V17.9912H37.6035V19.2588ZM35.4092 9.87305L23.2324 16.8369L22.5928 15.7383L34.7686 8.77441L35.4092 9.87305ZM15.0166 15.7305L14.376 16.8281L2.2002 9.86426L2.83984 8.7666L15.0166 15.7305ZM16.9863 14.2461L15.8779 14.8799L8.84766 2.81836L9.95605 2.18457L16.9863 14.2461ZM28.7559 2.80078L21.7256 14.8623L20.6172 14.2285L27.6475 2.16699L28.7559 2.80078ZM19.4424 13.9277H18.1621V0H19.4424V13.9277Z" fill="#F4F4F1"/>
<path d="M166.601 26.6116H163.118V22.8649H166.601V26.6116ZM189.995 24.3161V30.8332H186.988V26.6116H177.41V30.8332H174.402V24.3161H176.038C176.935 22.8913 177.542 20.4375 177.885 13.208H188.175V24.3161H189.995ZM185.167 15.5035H180.761C180.497 20.0681 180.022 22.6802 179.441 24.3161H185.167V15.5035ZM197.919 12.8122C201.982 12.8122 204.515 15.5562 204.515 19.9098C204.515 24.2633 201.982 27.0073 197.919 27.0073C193.856 27.0073 191.296 24.2633 191.296 19.9098C191.296 15.5562 193.856 12.8122 197.919 12.8122ZM197.919 15.1868C195.782 15.1868 194.463 17.0074 194.463 19.9098C194.463 22.8121 195.782 24.6327 197.919 24.6327C200.056 24.6327 201.375 22.8121 201.375 19.9098C201.375 17.0074 200.056 15.1868 197.919 15.1868ZM221.07 24.3161V30.8332H218.062V26.6116H208.484V30.8332H205.477V24.3161H207.112C208.009 22.8913 208.616 20.4375 208.959 13.208H219.25V24.3161H221.07ZM216.242 15.5035H211.835C211.571 20.0681 211.097 22.6802 210.516 24.3161H216.242V15.5035ZM228.994 12.8122C233.057 12.8122 235.59 15.5562 235.59 19.9098C235.59 24.2633 233.057 27.0073 228.994 27.0073C224.93 27.0073 222.371 24.2633 222.371 19.9098C222.371 15.5562 224.93 12.8122 228.994 12.8122ZM228.994 15.1868C226.856 15.1868 225.537 17.0074 225.537 19.9098C225.537 22.8121 226.856 24.6327 228.994 24.6327C231.131 24.6327 232.45 22.8121 232.45 19.9098C232.45 17.0074 231.131 15.1868 228.994 15.1868ZM256.398 26.6116H253.39V15.5035H247.611V26.6116H244.604V13.208H256.398V26.6116ZM273.436 26.6116H270.402V21.5456C270.402 19.6723 270.455 17.7726 270.534 15.8992H270.481C269.69 17.6406 268.766 19.4348 267.79 21.1762L264.703 26.6116H260.244V13.208H263.278V18.3003C263.278 20.1472 263.225 22.047 263.12 23.9203H263.173C263.991 22.1789 264.914 20.3847 265.89 18.6433L268.977 13.208H273.436V26.6116ZM289.096 24.3161H290.916V30.8332H287.908V26.6116H277.301V13.208H280.309V24.3161H286.088V13.208H289.096V24.3161ZM304.916 24.3161H306.737V30.8332H303.729V26.6116H293.122V13.208H296.13V24.3161H301.908V13.208H304.916V24.3161ZM313.956 12.8122C317.492 12.8122 319.471 14.5536 319.471 18.0628V23.076C319.471 24.6591 319.602 25.7673 319.814 26.6116H317.096C316.964 26.0311 316.911 25.3715 316.911 24.7382H316.858C315.882 26.163 314.378 26.9018 312.347 26.9018C309.55 26.9018 307.808 25.2132 307.808 22.9177C307.808 20.7277 309.101 19.3029 312.953 18.6961C314.035 18.5114 315.618 18.353 316.568 18.3003V17.7726C316.568 15.7937 315.486 15.0021 313.956 15.0021C312.294 15.0021 311.397 15.9256 311.318 17.3504H308.362C308.494 14.8174 310.341 12.8122 313.956 12.8122ZM316.568 20.9124V20.2528C315.671 20.3055 314.378 20.4375 313.481 20.5958C311.555 20.9124 310.843 21.4929 310.843 22.7066C310.843 23.8939 311.687 24.6855 313.217 24.6855C314.141 24.6855 315.038 24.3952 315.645 23.7884C316.357 23.0496 316.568 22.3372 316.568 20.9124ZM335.171 26.6116H332.163V20.9916H326.174V26.6116H323.166V13.208H326.174V18.6961H332.163V13.208H335.171V26.6116ZM342.02 17.8517H345.134C348.564 17.8517 350.411 19.4348 350.411 22.2317C350.411 25.0285 348.564 26.6116 345.134 26.6116H339.013V13.208H342.02V17.8517ZM355.345 26.6116H352.337V13.208H355.345V26.6116ZM342.02 20.0945V24.3688H344.817C346.506 24.3688 347.377 23.6828 347.377 22.2317C347.377 20.8069 346.506 20.0945 344.817 20.0945H342.02ZM373.014 30.8332H370.006V26.6116H368.185V20.9916H362.196V26.6116H359.188V13.208H362.196V18.6961H368.185V13.208H371.193V24.3161H373.014V30.8332ZM398.736 26.6116H395.042L390.451 19.6723H390.399V26.6116H387.443V19.6723H387.391L382.8 26.6116H379.106L384.462 19.3293L379.66 13.208H383.09L387.391 19.1446H387.443V13.208H390.399V19.1446H390.451L394.752 13.208H398.182L393.38 19.3293L398.736 26.6116ZM405.366 12.8122C409.43 12.8122 411.963 15.5562 411.963 19.9098C411.963 24.2633 409.43 27.0073 405.366 27.0073C401.303 27.0073 398.744 24.2633 398.744 19.9098C398.744 15.5562 401.303 12.8122 405.366 12.8122ZM405.366 15.1868C403.229 15.1868 401.91 17.0074 401.91 19.9098C401.91 22.8121 403.229 24.6327 405.366 24.6327C407.504 24.6327 408.823 22.8121 408.823 19.9098C408.823 17.0074 407.504 15.1868 405.366 15.1868ZM426.947 7.42963V10.0154C425.865 10.3056 424.177 10.4639 422.646 10.5695C418.24 10.8597 417.132 12.4428 416.657 16.1895H416.71C417.369 14.6064 418.794 13.4718 421.38 13.4718C425.153 13.4718 427.58 15.952 427.58 19.9889C427.58 24.3161 425.021 27.0073 420.958 27.0073C416.763 27.0073 414.335 24.2369 414.335 19.2765C414.335 10.8333 416.789 8.48503 422.04 8.06287C423.807 7.93094 425.707 7.74625 426.947 7.42963ZM420.879 15.7145C418.372 15.7145 417.449 17.5351 417.449 20.0153C417.449 22.9177 418.741 24.6327 420.958 24.6327C423.148 24.6327 424.414 23.0232 424.414 20.2C424.414 17.3768 423.095 15.7145 420.879 15.7145ZM435.652 12.8122C439.188 12.8122 441.166 14.5536 441.166 18.0628V23.076C441.166 24.6591 441.298 25.7673 441.509 26.6116H438.792C438.66 26.0311 438.607 25.3715 438.607 24.7382H438.554C437.578 26.163 436.074 26.9018 434.043 26.9018C431.246 26.9018 429.504 25.2132 429.504 22.9177C429.504 20.7277 430.797 19.3029 434.649 18.6961C435.731 18.5114 437.314 18.353 438.264 18.3003V17.7726C438.264 15.7937 437.182 15.0021 435.652 15.0021C433.99 15.0021 433.093 15.9256 433.014 17.3504H430.058C430.19 14.8174 432.037 12.8122 435.652 12.8122ZM438.264 20.9124V20.2528C437.367 20.3055 436.074 20.4375 435.177 20.5958C433.251 20.9124 432.539 21.4929 432.539 22.7066C432.539 23.8939 433.383 24.6855 434.913 24.6855C435.837 24.6855 436.734 24.3952 437.341 23.7884C438.053 23.0496 438.264 22.3372 438.264 20.9124ZM450.456 12.8122C453.886 12.8122 456.234 15.0021 456.498 18.0628H453.358C453.226 16.3214 452.092 15.1868 450.456 15.1868C448.345 15.1868 447.105 16.981 447.105 19.9098C447.105 22.8385 448.345 24.6327 450.456 24.6327C452.092 24.6327 453.2 23.3398 453.332 21.5193H456.498C456.234 24.7646 453.912 27.0073 450.456 27.0073C446.498 27.0073 443.939 24.2633 443.939 19.9098C443.939 15.5562 446.498 12.8122 450.456 12.8122ZM462.325 17.8517H465.438C468.869 17.8517 470.715 19.4348 470.715 22.2317C470.715 25.0285 468.869 26.6116 465.438 26.6116H459.317V13.208H462.325V17.8517ZM475.649 26.6116H472.642V13.208H475.649V26.6116ZM462.325 20.0945V24.3688H465.122C466.81 24.3688 467.681 23.6828 467.681 22.2317C467.681 20.8069 466.81 20.0945 465.122 20.0945H462.325Z" fill="#F4F4F1"/>
</svg>
