<svg width="321" height="29" viewBox="0 0 321 29" fill="none" xmlns="http://www.w3.org/2000/svg">
<path fill-rule="evenodd" clip-rule="evenodd" d="M118.416 6.87777C119.601 6.79647 120.901 6.6687 121.738 6.44801L121.738 4.4502C120.785 4.69411 119.31 4.8335 117.951 4.93803C113.886 5.26326 111.993 7.07523 112.004 13.603C112.004 17.436 113.979 19.5732 117.115 19.5732C120.251 19.5732 122.226 17.4941 122.226 14.1489C122.226 11.036 120.356 9.11951 117.452 9.11951C115.454 9.11951 114.35 10.0023 113.839 11.2219L113.793 11.2219C114.153 8.32967 115.013 7.09846 118.416 6.87777ZM117.103 17.738C115.396 17.738 114.397 16.4139 114.397 14.1721C114.397 12.2556 115.105 10.8502 117.045 10.8502C118.753 10.8502 119.775 12.1278 119.775 14.3115C119.775 16.4952 118.811 17.738 117.103 17.738ZM110.017 12.6629L110.017 16.5308C110.017 17.7504 110.122 18.6099 110.284 19.2603L108.182 19.2603C108.078 18.8074 108.043 18.2963 108.043 17.8084L107.996 17.8084C107.241 18.9119 106.08 19.481 104.512 19.481C102.351 19.481 101.004 18.1801 101.004 16.403C101.004 14.6259 102.003 13.6154 104.976 13.1391C105.813 12.9998 107.032 12.872 107.764 12.8371L107.764 12.4306C107.764 10.8974 106.928 10.2934 105.743 10.2934C104.454 10.2934 103.768 11.0019 103.71 12.1054L101.422 12.1054C101.527 10.154 102.955 8.59759 105.743 8.59759C108.531 8.59759 110.006 9.94496 110.006 12.6513L110.017 12.6629ZM107.776 14.3587C107.079 14.3936 106.08 14.4981 105.394 14.6259C103.908 14.8698 103.362 15.3228 103.362 16.252C103.362 17.1812 104.012 17.7852 105.197 17.7852C105.906 17.7852 106.602 17.5645 107.067 17.0883C107.613 16.5192 107.776 15.9732 107.776 14.8698L107.776 14.3587ZM96.7877 10.6868L96.7877 19.2705L99.1108 19.2705L99.1108 8.92132L91.6306 8.92132C91.5028 16.3783 90.9801 17.6211 89.6328 17.6211C89.4934 17.6211 89.354 17.5979 89.2495 17.5746L89.2495 19.2705C89.5166 19.3285 89.7954 19.375 90.1438 19.375C92.5133 19.375 93.6516 18.0276 93.8143 10.6868L96.7877 10.6868ZM83.9074 14.091C83.9074 17.4594 81.9561 19.5734 78.8083 19.5734C75.6606 19.5734 73.6977 17.4478 73.6977 14.091C73.6977 10.7342 75.6722 8.60862 78.8083 8.60862C81.9444 8.60862 83.9074 10.7342 83.9074 14.091ZM76.1485 14.091C76.1485 16.3327 77.1706 17.7382 78.82 17.7382C80.4693 17.7382 81.4915 16.3327 81.4915 14.091C81.4915 11.8493 80.4693 10.4438 78.82 10.4438C77.1706 10.4438 76.1485 11.8493 76.1485 14.091ZM70.5841 22.5237L72.9072 22.5237L72.9072 17.4943L71.5017 17.4943L71.5017 8.91067L63.5569 8.91067C63.2898 14.4976 62.8252 16.3909 62.1283 17.4943L60.8622 17.4943L60.8622 22.5237L63.1852 22.5237L63.1852 19.2598L70.5841 19.2598L70.5841 22.5237ZM64.7533 17.4943C65.2063 16.2282 65.5664 14.2188 65.7754 10.6878L69.1787 10.6878L69.1787 17.4943L64.7533 17.4943ZM60.095 14.091C60.095 17.4594 58.1437 19.5734 54.996 19.5734C51.8482 19.5734 49.8853 17.4478 49.8853 14.091C49.8853 10.7342 51.8599 8.60862 54.996 8.60862C58.1321 8.60862 60.095 10.7342 60.095 14.091ZM52.3361 14.091C52.3361 16.3327 53.3582 17.7382 55.0076 17.7382C56.6569 17.7382 57.6791 16.3327 57.6791 14.091C57.6791 11.8493 56.6569 10.4438 55.0076 10.4438C53.3582 10.4438 52.3361 11.8493 52.3361 14.091ZM49.0967 22.5237L46.7737 22.5237L46.7737 19.2598L39.3748 19.2598L39.3748 22.5237L37.0517 22.5237L37.0517 17.4943L38.3178 17.4943C39.0147 16.3909 39.4793 14.4976 39.7465 8.91067L47.6913 8.91067L47.6913 17.4943L49.0967 17.4943L49.0967 22.5237ZM41.965 10.6878C41.7559 14.2188 41.3958 16.2282 40.9428 17.4943L45.3682 17.4943L45.3682 10.6878L41.965 10.6878Z" fill="#111110"/>
<path fill-rule="evenodd" clip-rule="evenodd" d="M14.1753 0H15.1393V10.5866H14.1753V0ZM14.1753 17.7278H15.1393V28.3143H14.1753V17.7278ZM16.8597 17.0285L16.0248 17.5105L21.3181 26.6788L22.153 26.1968L16.8597 17.0285ZM7.1617 2.14246L7.99658 1.66044L13.2899 10.8287L12.455 11.3107L7.1617 2.14246ZM17.9992 15.5318L17.5172 16.3667L26.6854 21.66L27.1674 20.8251L17.9992 15.5318ZM2.15629 7.49859L2.63831 6.66371L11.8066 11.957L11.3245 12.7919L2.15629 7.49859ZM28.8132 13.6753H18.2266V14.6393H28.8132V13.6753ZM0.5 13.6753H11.0866V14.6393H0.5V13.6753ZM26.6789 6.66976L17.5107 11.9631L17.9927 12.7979L27.161 7.50465L26.6789 6.66976ZM2.16162 20.8102L11.3299 15.5169L11.8119 16.3518L2.64364 21.6451L2.16162 20.8102ZM21.3166 1.64711L16.0233 10.8154L16.8582 11.2974L22.1515 2.12913L21.3166 1.64711ZM7.15485 26.1755L12.4481 17.0072L13.283 17.4892L7.98973 26.6575L7.15485 26.1755Z" fill="#111110"/>
<path d="M125.941 19.7861H123.318V16.9651H125.941V19.7861ZM141.946 19.7861H139.681V11.4224H135.331V19.7861H133.066V9.694H141.946V19.7861ZM150.087 9.43573C152.65 9.43573 154.299 11.5217 154.299 14.7401C154.299 17.9584 152.669 20.0245 150.107 20.0245C148.855 20.0245 147.723 19.4484 147.147 18.4749H147.107V23.4614H144.842V9.694H147.047V11.0846H147.087C147.683 10.0516 148.815 9.43573 150.087 9.43573ZM149.431 11.2038C147.961 11.2038 146.988 12.5349 146.988 14.7401C146.988 16.9254 147.961 18.2763 149.431 18.2763C150.961 18.2763 151.934 16.8856 151.934 14.7401C151.934 12.5945 150.961 11.2038 149.431 11.2038ZM160.987 9.396C164.047 9.396 165.954 11.4621 165.954 14.7401C165.954 18.018 164.047 20.0841 160.987 20.0841C157.928 20.0841 156.001 18.018 156.001 14.7401C156.001 11.4621 157.928 9.396 160.987 9.396ZM160.987 11.184C159.378 11.184 158.385 12.5548 158.385 14.7401C158.385 16.9254 159.378 18.2962 160.987 18.2962C162.596 18.2962 163.59 16.9254 163.59 14.7401C163.59 12.5548 162.596 11.184 160.987 11.184ZM172.548 18.4154C173.839 18.4154 174.673 17.72 174.872 16.7466H177.196C176.819 18.5544 175.19 20.0841 172.548 20.0841C169.468 20.0841 167.661 17.879 167.661 14.6209C167.661 11.6409 169.449 9.396 172.508 9.396C174.812 9.396 176.481 10.7271 177.037 12.8329C177.236 13.4686 177.316 14.2235 177.316 15.197H169.905C169.985 17.4816 171.137 18.4154 172.548 18.4154ZM172.508 11.0648C171.137 11.0648 170.144 11.9588 169.945 13.707H175.051C174.892 11.9389 173.859 11.0648 172.508 11.0648ZM188.61 19.7861H185.749L181.816 14.899H181.776V19.7861H179.511V9.694H181.776V13.8262H181.816L185.491 9.694H188.133L183.961 14.303L188.61 19.7861ZM197.713 11.4224H194.395V19.7861H192.111V11.4224H188.773V9.694H197.713V11.4224ZM214.349 18.0578V22.9648H212.084V19.7861H204.872V22.9648H202.608V18.0578H203.839C204.515 16.985 204.972 15.1374 205.23 9.694H212.978V18.0578H214.349ZM210.713 11.4224H207.396C207.197 14.8593 206.839 16.826 206.402 18.0578H210.713V11.4224ZM220.315 9.396C223.374 9.396 225.281 11.4621 225.281 14.7401C225.281 18.018 223.374 20.0841 220.315 20.0841C217.255 20.0841 215.328 18.018 215.328 14.7401C215.328 11.4621 217.255 9.396 220.315 9.396ZM220.315 11.184C218.706 11.184 217.712 12.5548 217.712 14.7401C217.712 16.9254 218.706 18.2962 220.315 18.2962C221.924 18.2962 222.917 16.9254 222.917 14.7401C222.917 12.5548 221.924 11.184 220.315 11.184ZM237.746 18.0578V22.9648H235.481V19.7861H228.27V22.9648H226.005V18.0578H227.237C227.912 16.985 228.369 15.1374 228.627 9.694H236.375V18.0578H237.746ZM234.111 11.4224H230.793C230.594 14.8593 230.237 16.826 229.8 18.0578H234.111V11.4224ZM243.712 9.396C246.772 9.396 248.679 11.4621 248.679 14.7401C248.679 18.018 246.772 20.0841 243.712 20.0841C240.653 20.0841 238.726 18.018 238.726 14.7401C238.726 11.4621 240.653 9.396 243.712 9.396ZM243.712 11.184C242.103 11.184 241.11 12.5548 241.11 14.7401C241.11 16.9254 242.103 18.2962 243.712 18.2962C245.321 18.2962 246.315 16.9254 246.315 14.7401C246.315 12.5548 245.321 11.184 243.712 11.184ZM264.346 19.7861H262.081V11.4224H257.73V19.7861H255.465V9.694H264.346V19.7861ZM277.175 19.7861H274.89V15.9718C274.89 14.5613 274.93 13.1309 274.99 11.7204H274.95C274.354 13.0316 273.659 14.3825 272.923 15.6937L270.599 19.7861H267.242V9.694H269.526V13.5282C269.526 14.9189 269.487 16.3492 269.407 17.7598H269.447C270.063 16.4486 270.758 15.0977 271.493 13.7865L273.817 9.694H277.175V19.7861ZM288.965 18.0578H290.336V22.9648H288.071V19.7861H280.085V9.694H282.35V18.0578H286.7V9.694H288.965V18.0578ZM300.877 18.0578H302.248V22.9648H299.983V19.7861H291.997V9.694H294.262V18.0578H298.613V9.694H300.877V18.0578ZM306.174 13.1905H308.518C311.101 13.1905 312.491 14.3825 312.491 16.4883C312.491 18.5941 311.101 19.7861 308.518 19.7861H303.909V9.694H306.174V13.1905ZM316.206 19.7861H313.942V9.694H316.206V19.7861ZM306.174 14.8791V18.0975H308.28C309.551 18.0975 310.207 17.581 310.207 16.4883C310.207 15.4155 309.551 14.8791 308.28 14.8791H306.174Z" fill="#111110"/>
</svg>
