<svg width="321" height="29" viewBox="0 0 321 29" fill="none" xmlns="http://www.w3.org/2000/svg">
<path d="M46.7734 22.5234L46.7734 19.2598L39.375 19.2598L39.375 22.5234L37.0518 22.5234L37.0518 17.4941L38.3174 17.4941C39.0143 16.3907 39.4789 14.4977 39.7461 8.91113L47.6914 8.91113L47.6914 17.4941L49.0967 17.4941L49.0967 22.5234L46.7734 22.5234ZM41.9648 10.6875C41.7558 14.2185 41.3954 16.2281 40.9424 17.4941L45.3682 17.4941L45.3682 10.6875L41.9648 10.6875ZM60.0947 14.0908C60.0947 17.4592 58.1437 19.5732 54.9961 19.5732C51.8484 19.5732 49.8857 17.4476 49.8857 14.0908C49.8858 10.7341 51.86 8.6084 54.9961 8.6084C58.1321 8.60845 60.0947 10.7342 60.0947 14.0908ZM57.6787 14.0908C57.6787 11.8493 56.657 10.4435 55.0078 10.4434C53.3585 10.4434 52.336 11.8492 52.3359 14.0908C52.3359 16.3326 53.3585 17.7383 55.0078 17.7383C56.657 17.7381 57.6787 16.3324 57.6787 14.0908ZM70.584 22.5234L70.584 19.2598L63.1855 19.2598L63.1855 22.5234L60.8623 22.5234L60.8623 17.4941L62.1279 17.4941C62.8248 16.3907 63.2895 14.4977 63.5566 8.91113L71.502 8.91113L71.502 17.4941L72.9072 17.4941L72.9072 22.5234L70.584 22.5234ZM65.7754 10.6875C65.5663 14.2185 65.2059 16.2281 64.7529 17.4941L69.1787 17.4941L69.1787 10.6875L65.7754 10.6875ZM83.9072 14.0908C83.9072 17.4591 81.9562 19.5731 78.8086 19.5732C75.6609 19.5732 73.6973 17.4476 73.6973 14.0908C73.6973 10.7341 75.6725 8.6084 78.8086 8.6084C81.9445 8.60851 83.9072 10.7342 83.9072 14.0908ZM81.4912 14.0908C81.4912 11.8493 80.4694 10.4436 78.8203 10.4434C77.171 10.4434 76.1485 11.8492 76.1484 14.0908C76.1484 16.3326 77.171 17.7383 78.8203 17.7383C80.4695 17.7381 81.4912 16.3324 81.4912 14.0908ZM96.7881 19.2705L96.7881 10.6865L93.8145 10.6865C93.6518 18.0273 92.5131 19.375 90.1436 19.375C89.7952 19.375 89.5161 19.3286 89.249 19.2705L89.249 17.5742C89.3536 17.5974 89.4934 17.6211 89.6328 17.6211C90.9802 17.6211 91.5031 16.3778 91.6309 8.9209L99.1104 8.9209L99.1104 19.2705L96.7881 19.2705ZM108.183 19.2607C108.078 18.8078 108.043 18.2964 108.043 17.8086L107.996 17.8086C107.241 18.9119 106.08 19.4814 104.512 19.4814C102.351 19.4814 101.004 18.1803 101.004 16.4033C101.004 14.6262 102.003 13.6149 104.977 13.1387C105.813 12.9993 107.032 12.8718 107.764 12.8369L107.764 12.4307C107.764 10.8975 106.928 10.293 105.743 10.293C104.454 10.293 103.768 11.002 103.71 12.1055L101.422 12.1055C101.526 10.1541 102.956 8.59766 105.743 8.59766C108.531 8.59772 110.006 9.94509 110.006 12.6514L110.018 12.6631L110.018 16.5312C110.018 17.7506 110.122 18.6104 110.284 19.2607L108.183 19.2607ZM107.775 14.3584C107.078 14.3933 106.08 14.4982 105.395 14.626C103.908 14.8699 103.362 15.3228 103.362 16.252C103.362 17.1812 104.013 17.7852 105.197 17.7852C105.906 17.7851 106.603 17.5641 107.067 17.0879C107.613 16.5189 107.775 15.9731 107.775 14.8701L107.775 14.3584ZM122.226 14.1484C122.226 17.4935 120.251 19.5731 117.115 19.5732C113.979 19.5732 112.004 17.4356 112.004 13.6025C111.992 7.07518 113.886 5.26371 117.951 4.93848C119.31 4.83395 120.785 4.69405 121.737 4.4502L121.737 6.44824C120.901 6.66884 119.6 6.79664 118.416 6.87793C115.013 7.09861 114.153 8.32962 113.793 11.2217L113.84 11.2217C114.351 10.0022 115.454 9.11914 117.452 9.11914C120.356 9.11932 122.225 11.036 122.226 14.1484ZM119.774 14.3115C119.774 12.1279 118.752 10.8506 117.045 10.8506C115.105 10.8507 114.397 12.2556 114.396 14.1719C114.396 16.4136 115.396 17.7383 117.104 17.7383C118.811 17.7382 119.774 16.4951 119.774 14.3115Z" fill="#F4F4F1"/>
<path d="M15.1396 28.3145H14.1748V17.7275H15.1396V28.3145ZM22.1533 26.1963L21.3184 26.6787L16.0244 17.5107L16.8594 17.0283L22.1533 26.1963ZM13.2832 17.4893L7.98926 26.6572L7.15527 26.1758L12.4482 17.0068L13.2832 17.4893ZM27.167 20.8252L26.6855 21.6602L17.5176 16.3662L17.999 15.5322L27.167 20.8252ZM11.8115 16.3516L2.64355 21.6455L2.16113 20.8105L11.3301 15.5166L11.8115 16.3516ZM11.0869 14.6396H0.5V13.6748H11.0869V14.6396ZM28.8135 14.6396H18.2266V13.6748H28.8135V14.6396ZM27.1611 7.50488L17.9932 12.7979L17.5107 11.9629L26.6787 6.66992L27.1611 7.50488ZM11.8066 11.957L11.3242 12.792L2.15625 7.49902L2.63867 6.66406L11.8066 11.957ZM13.29 10.8291L12.4551 11.3105L7.16211 2.14258L7.99609 1.66016L13.29 10.8291ZM22.1514 2.12891L16.8584 11.2979L16.0234 10.8154L21.3164 1.64746L22.1514 2.12891ZM15.1396 10.5869H14.1748V0H15.1396V10.5869Z" fill="#F4F4F1"/>
<path d="M125.941 19.7861H123.318V16.9651H125.941V19.7861ZM141.946 19.7861H139.681V11.4224H135.331V19.7861H133.066V9.694H141.946V19.7861ZM150.087 9.43573C152.65 9.43573 154.299 11.5217 154.299 14.7401C154.299 17.9584 152.669 20.0245 150.107 20.0245C148.855 20.0245 147.723 19.4484 147.147 18.4749H147.107V23.4614H144.842V9.694H147.047V11.0846H147.087C147.683 10.0516 148.815 9.43573 150.087 9.43573ZM149.431 11.2038C147.961 11.2038 146.988 12.5349 146.988 14.7401C146.988 16.9254 147.961 18.2763 149.431 18.2763C150.961 18.2763 151.934 16.8856 151.934 14.7401C151.934 12.5945 150.961 11.2038 149.431 11.2038ZM160.987 9.396C164.047 9.396 165.954 11.4621 165.954 14.7401C165.954 18.018 164.047 20.0841 160.987 20.0841C157.928 20.0841 156.001 18.018 156.001 14.7401C156.001 11.4621 157.928 9.396 160.987 9.396ZM160.987 11.184C159.378 11.184 158.385 12.5548 158.385 14.7401C158.385 16.9254 159.378 18.2962 160.987 18.2962C162.596 18.2962 163.59 16.9254 163.59 14.7401C163.59 12.5548 162.596 11.184 160.987 11.184ZM172.548 18.4154C173.839 18.4154 174.673 17.72 174.872 16.7466H177.196C176.819 18.5544 175.19 20.0841 172.548 20.0841C169.468 20.0841 167.661 17.879 167.661 14.6209C167.661 11.6409 169.449 9.396 172.508 9.396C174.812 9.396 176.481 10.7271 177.037 12.8329C177.236 13.4686 177.316 14.2235 177.316 15.197H169.905C169.985 17.4816 171.137 18.4154 172.548 18.4154ZM172.508 11.0648C171.137 11.0648 170.144 11.9588 169.945 13.707H175.051C174.892 11.9389 173.859 11.0648 172.508 11.0648ZM188.61 19.7861H185.749L181.816 14.899H181.776V19.7861H179.511V9.694H181.776V13.8262H181.816L185.491 9.694H188.133L183.961 14.303L188.61 19.7861ZM197.713 11.4224H194.395V19.7861H192.111V11.4224H188.773V9.694H197.713V11.4224ZM214.349 18.0578V22.9648H212.084V19.7861H204.872V22.9648H202.608V18.0578H203.839C204.515 16.985 204.972 15.1374 205.23 9.694H212.978V18.0578H214.349ZM210.713 11.4224H207.396C207.197 14.8593 206.839 16.826 206.402 18.0578H210.713V11.4224ZM220.315 9.396C223.374 9.396 225.281 11.4621 225.281 14.7401C225.281 18.018 223.374 20.0841 220.315 20.0841C217.255 20.0841 215.328 18.018 215.328 14.7401C215.328 11.4621 217.255 9.396 220.315 9.396ZM220.315 11.184C218.706 11.184 217.712 12.5548 217.712 14.7401C217.712 16.9254 218.706 18.2962 220.315 18.2962C221.924 18.2962 222.917 16.9254 222.917 14.7401C222.917 12.5548 221.924 11.184 220.315 11.184ZM237.746 18.0578V22.9648H235.481V19.7861H228.27V22.9648H226.005V18.0578H227.237C227.912 16.985 228.369 15.1374 228.627 9.694H236.375V18.0578H237.746ZM234.111 11.4224H230.793C230.594 14.8593 230.237 16.826 229.8 18.0578H234.111V11.4224ZM243.712 9.396C246.772 9.396 248.679 11.4621 248.679 14.7401C248.679 18.018 246.772 20.0841 243.712 20.0841C240.653 20.0841 238.726 18.018 238.726 14.7401C238.726 11.4621 240.653 9.396 243.712 9.396ZM243.712 11.184C242.103 11.184 241.11 12.5548 241.11 14.7401C241.11 16.9254 242.103 18.2962 243.712 18.2962C245.321 18.2962 246.315 16.9254 246.315 14.7401C246.315 12.5548 245.321 11.184 243.712 11.184ZM264.346 19.7861H262.081V11.4224H257.73V19.7861H255.465V9.694H264.346V19.7861ZM277.175 19.7861H274.89V15.9718C274.89 14.5613 274.93 13.1309 274.99 11.7204H274.95C274.354 13.0316 273.659 14.3825 272.923 15.6937L270.599 19.7861H267.242V9.694H269.526V13.5282C269.526 14.9189 269.487 16.3492 269.407 17.7598H269.447C270.063 16.4486 270.758 15.0977 271.493 13.7865L273.817 9.694H277.175V19.7861ZM288.965 18.0578H290.336V22.9648H288.071V19.7861H280.085V9.694H282.35V18.0578H286.7V9.694H288.965V18.0578ZM300.877 18.0578H302.248V22.9648H299.983V19.7861H291.997V9.694H294.262V18.0578H298.613V9.694H300.877V18.0578ZM306.174 13.1905H308.518C311.101 13.1905 312.491 14.3825 312.491 16.4883C312.491 18.5941 311.101 19.7861 308.518 19.7861H303.909V9.694H306.174V13.1905ZM316.206 19.7861H313.942V9.694H316.206V19.7861ZM306.174 14.8791V18.0975H308.28C309.551 18.0975 310.207 17.581 310.207 16.4883C310.207 15.4155 309.551 14.8791 308.28 14.8791H306.174Z" fill="#F4F4F1"/>
</svg>
