<svg width="38" height="38" viewBox="0 0 38 38" fill="none" xmlns="http://www.w3.org/2000/svg">
<path fill-rule="evenodd" clip-rule="evenodd" d="M18.1937 0.257812H19.4741V14.3181H18.1937V0.257812ZM18.1937 23.8025H19.4741V37.8628H18.1937V23.8025ZM21.759 22.8739L20.6501 23.5141L27.6803 35.6907L28.7891 35.0505L21.759 22.8739ZM8.87882 3.10339L9.98764 2.4632L17.0178 14.6398L15.909 15.28L8.87882 3.10339ZM23.2723 20.8858L22.6322 21.9946L34.8087 29.0248L35.4489 27.916L23.2723 20.8858ZM2.23102 10.2166L2.8712 9.1078L15.0478 16.138L14.4076 17.2468L2.23102 10.2166ZM37.6347 18.4204H23.5744V19.7008H37.6347V18.4204ZM0.03125 18.4204H14.0916V19.7008H0.03125V18.4204ZM34.8001 9.11634L22.6236 16.1465L23.2637 17.2553L35.4403 10.2252L34.8001 9.11634ZM2.23809 27.8966L14.4147 20.8664L15.0549 21.9753L2.87827 29.0054L2.23809 27.8966ZM27.6783 2.44538L20.6481 14.622L21.757 15.2622L28.7871 3.08557L27.6783 2.44538ZM8.86972 35.0224L15.8999 22.8458L17.0087 23.4859L9.97855 35.6625L8.86972 35.0224Z" fill="none"/>
</svg>
