<svg width="425" height="38" viewBox="0 0 425 38" fill="none" xmlns="http://www.w3.org/2000/svg">
<path d="M61.457 29.9143L61.457 25.5793L51.6309 25.5793L51.6309 29.9143L48.5449 29.9143L48.5449 23.2346L50.2266 23.2346C51.1521 21.7691 51.7692 19.2542 52.124 11.8342L62.6758 11.8342L62.6758 23.2346L64.542 23.2346L64.542 29.9143L61.457 29.9143ZM55.0703 14.1946C54.7926 18.8841 54.3145 21.5532 53.7129 23.2346L59.5908 23.2346L59.5908 14.1946L55.0703 14.1946ZM79.1494 18.7141C79.1494 23.1878 76.5575 25.9954 72.377 25.9954C68.1967 25.9951 65.5898 23.1722 65.5898 18.7141C65.5899 14.2561 68.2121 11.4331 72.377 11.4329C76.5421 11.4329 79.1494 14.2559 79.1494 18.7141ZM75.9414 18.7141C75.9414 15.7369 74.5831 13.8704 72.3926 13.8704C70.2022 13.8705 68.8448 15.737 68.8447 18.7141C68.8447 21.6913 70.2022 23.5577 72.3926 23.5579C74.5831 23.5579 75.9414 21.6914 75.9414 18.7141ZM93.0801 29.9143L93.0801 25.5793L83.2539 25.5793L83.2539 29.9143L80.1689 29.9143L80.1689 23.2346L81.8496 23.2346C82.7752 21.7691 83.3923 19.2542 83.7471 11.8342L94.2988 11.8342L94.2988 23.2346L96.166 23.2346L96.166 29.9143L93.0801 29.9143ZM86.6943 14.1946C86.4167 18.8841 85.9376 21.5532 85.3359 23.2346L91.2139 23.2346L91.2139 14.1946L86.6943 14.1946ZM110.775 18.7141C110.775 23.1878 108.183 25.9954 104.003 25.9954C99.8226 25.9952 97.2158 23.1722 97.2158 18.7141C97.2159 14.256 99.838 11.433 104.003 11.4329C108.168 11.4329 110.775 14.2559 110.775 18.7141ZM107.566 18.7141C107.566 15.7369 106.209 13.8704 104.019 13.8704C101.828 13.8704 100.471 15.7369 100.471 18.7141C100.471 21.6914 101.828 23.5578 104.019 23.5579C106.209 23.5579 107.566 21.6914 107.566 18.7141ZM127.882 25.593L127.882 14.1936L123.933 14.1936C123.717 23.9425 122.205 25.7325 119.059 25.7327C118.596 25.7327 118.225 25.6701 117.87 25.593L117.87 23.3411C118.009 23.3719 118.195 23.4026 118.38 23.4026C120.169 23.4023 120.864 21.7515 121.033 11.8489L130.968 11.8489L130.968 25.593L127.882 25.593ZM143.016 25.5803C142.877 24.9787 142.83 24.2995 142.83 23.6516L142.769 23.6516C141.766 25.1171 140.223 25.8733 138.141 25.8733C135.271 25.8733 133.482 24.1455 133.481 21.7854C133.481 19.4252 134.809 18.0829 138.758 17.4504C139.869 17.2653 141.488 17.0953 142.46 17.0491L142.46 16.509C142.46 14.4729 141.349 13.6711 139.775 13.6711C138.063 13.6713 137.153 14.612 137.076 16.0774L134.037 16.0774C134.176 13.4858 136.073 11.4184 139.775 11.4182C143.478 11.4182 145.437 13.2079 145.437 16.802L145.453 16.8176L145.453 21.9543C145.453 23.5741 145.592 24.7164 145.808 25.5803L143.016 25.5803ZM142.476 19.0696C141.55 19.1159 140.223 19.2554 139.312 19.425C137.338 19.749 136.613 20.3504 136.613 21.5842C136.613 22.8183 137.477 23.6213 139.051 23.6213C139.992 23.6213 140.917 23.3279 141.534 22.6956C142.259 21.9397 142.476 21.2145 142.476 19.7493L142.476 19.0696ZM161.667 18.7913C161.667 23.2341 159.044 25.9954 154.879 25.9954C150.714 25.9953 148.092 23.1572 148.092 18.0666C148.076 9.39721 150.59 6.98989 155.989 6.55786C157.794 6.41903 159.754 6.23433 161.019 5.9104L161.019 8.56372C159.908 8.8568 158.18 9.02703 156.606 9.13501C152.087 9.42816 150.945 11.0628 150.467 14.9036L150.528 14.9036C151.207 13.284 152.673 12.1116 155.326 12.1116C159.183 12.1116 161.667 14.6571 161.667 18.7913ZM158.412 19.0071C158.412 16.1071 157.054 14.4104 154.786 14.4104C152.21 14.4106 151.27 16.2773 151.27 18.8225C151.27 21.7996 152.596 23.5577 154.863 23.5579C157.131 23.5579 158.412 21.9072 158.412 19.0071Z" fill="#F4F4F1"/>
<path d="M19.4424 37.6045H18.1621V23.5449H19.4424V37.6045ZM28.7578 34.793L27.6494 35.4326L20.6191 23.2559L21.7275 22.6162L28.7578 34.793ZM16.9775 23.2285L9.94727 35.4043L8.83887 34.7646L15.8682 22.5879L16.9775 23.2285ZM35.418 27.6582L34.7773 28.7666L22.6006 21.7373L23.2412 20.6279L35.418 27.6582ZM15.0234 21.7178L2.84668 28.748L2.20703 27.6387L14.3838 20.6084L15.0234 21.7178ZM14.0605 19.4434H0V18.1621H14.0605V19.4434ZM37.6035 19.4434H23.543V18.1621H37.6035V19.4434ZM35.4092 9.96777L23.2324 16.9971L22.5928 15.8887L34.7686 8.8584L35.4092 9.96777ZM15.0166 15.8799L14.376 16.9893L2.2002 9.95898L2.83984 8.84961L15.0166 15.8799ZM16.9863 14.3818L15.8779 15.0225L8.84766 2.8457L9.95605 2.20508L16.9863 14.3818ZM28.7559 2.82812L21.7256 15.0039L20.6172 14.3643L27.6475 2.1875L28.7559 2.82812ZM19.4424 14.0605H18.1621V0H19.4424V14.0605Z" fill="#F4F4F1"/>
<path d="M166.601 26.6843H163.118V22.9376H166.601V26.6843ZM187.858 26.6843H184.85V15.5762H179.072V26.6843H176.064V13.2807H187.858V26.6843ZM198.67 12.9377C202.074 12.9377 204.264 15.7081 204.264 19.9825C204.264 24.2569 202.1 27.0009 198.697 27.0009C197.034 27.0009 195.53 26.2358 194.765 24.9429H194.712V31.5656H191.705V13.2807H194.633V15.1277H194.686C195.478 13.7556 196.982 12.9377 198.67 12.9377ZM197.799 15.286C195.847 15.286 194.554 17.0538 194.554 19.9825C194.554 22.8849 195.847 24.6791 197.799 24.6791C199.831 24.6791 201.124 22.8321 201.124 19.9825C201.124 17.1329 199.831 15.286 197.799 15.286ZM213.147 12.8849C217.21 12.8849 219.743 15.629 219.743 19.9825C219.743 24.3361 217.21 27.0801 213.147 27.0801C209.084 27.0801 206.524 24.3361 206.524 19.9825C206.524 15.629 209.084 12.8849 213.147 12.8849ZM213.147 15.2596C211.01 15.2596 209.691 17.0802 209.691 19.9825C209.691 22.8849 211.01 24.7054 213.147 24.7054C215.284 24.7054 216.604 22.8849 216.604 19.9825C216.604 17.0802 215.284 15.2596 213.147 15.2596ZM228.501 24.8638C230.216 24.8638 231.324 23.9403 231.588 22.6474H234.675C234.174 25.0485 232.01 27.0801 228.501 27.0801C224.411 27.0801 222.01 24.1514 222.01 19.8242C222.01 15.8664 224.385 12.8849 228.448 12.8849C231.509 12.8849 233.725 14.6527 234.464 17.4496C234.728 18.2939 234.833 19.2965 234.833 20.5894H224.992C225.097 23.6237 226.628 24.8638 228.501 24.8638ZM228.448 15.1013C226.628 15.1013 225.308 16.2886 225.045 18.6105H231.826C231.614 16.2622 230.242 15.1013 228.448 15.1013ZM249.834 26.6843H246.034L240.81 20.1936H240.757V26.6843H237.75V13.2807H240.757V18.7688H240.81L245.691 13.2807H249.201L243.66 19.402L249.834 26.6843ZM261.924 15.5762H257.517V26.6843H254.483V15.5762H250.05V13.2807H261.924V15.5762ZM284.018 24.3888V30.9059H281.01V26.6843H271.432V30.9059H268.424V24.3888H270.06C270.957 22.964 271.564 20.5102 271.907 13.2807H282.197V24.3888H284.018ZM279.19 15.5762H274.783C274.519 20.1408 274.044 22.753 273.464 24.3888H279.19V15.5762ZM291.942 12.8849C296.005 12.8849 298.538 15.629 298.538 19.9825C298.538 24.3361 296.005 27.0801 291.942 27.0801C287.878 27.0801 285.319 24.3361 285.319 19.9825C285.319 15.629 287.878 12.8849 291.942 12.8849ZM291.942 15.2596C289.804 15.2596 288.485 17.0802 288.485 19.9825C288.485 22.8849 289.804 24.7054 291.942 24.7054C294.079 24.7054 295.398 22.8849 295.398 19.9825C295.398 17.0802 294.079 15.2596 291.942 15.2596ZM315.093 24.3888V30.9059H312.085V26.6843H302.507V30.9059H299.499V24.3888H301.135C302.032 22.964 302.639 20.5102 302.982 13.2807H313.272V24.3888H315.093ZM310.264 15.5762H305.858C305.594 20.1408 305.119 22.753 304.539 24.3888H310.264V15.5762ZM323.016 12.8849C327.08 12.8849 329.612 15.629 329.612 19.9825C329.612 24.3361 327.08 27.0801 323.016 27.0801C318.953 27.0801 316.394 24.3361 316.394 19.9825C316.394 15.629 318.953 12.8849 323.016 12.8849ZM323.016 15.2596C320.879 15.2596 319.56 17.0802 319.56 19.9825C319.56 22.8849 320.879 24.7054 323.016 24.7054C325.153 24.7054 326.473 22.8849 326.473 19.9825C326.473 17.0802 325.153 15.2596 323.016 15.2596ZM350.42 26.6843H347.412V15.5762H341.634V26.6843H338.626V13.2807H350.42V26.6843ZM367.459 26.6843H364.425V21.6184C364.425 19.7451 364.477 17.8453 364.557 15.972H364.504C363.712 17.7134 362.789 19.5076 361.813 21.249L358.726 26.6843H354.266V13.2807H357.301V18.373C357.301 20.22 357.248 22.1197 357.142 23.993H357.195C358.013 22.2516 358.937 20.4574 359.913 18.716L363 13.2807H367.459V26.6843ZM383.118 24.3888H384.939V30.9059H381.931V26.6843H371.324V13.2807H374.332V24.3888H380.11V13.2807H383.118V24.3888ZM398.939 24.3888H400.759V30.9059H397.752V26.6843H387.145V13.2807H390.153V24.3888H395.931V13.2807H398.939V24.3888ZM405.973 17.9245H409.087C412.517 17.9245 414.364 19.5076 414.364 22.3044C414.364 25.1012 412.517 26.6843 409.087 26.6843H402.965V13.2807H405.973V17.9245ZM419.298 26.6843H416.29V13.2807H419.298V26.6843ZM405.973 20.1672V24.4416H408.77C410.459 24.4416 411.329 23.7556 411.329 22.3044C411.329 20.8796 410.459 20.1672 408.77 20.1672H405.973Z" fill="#F4F4F1"/>
</svg>
