<svg width="425" height="38" viewBox="0 0 425 38" fill="none" xmlns="http://www.w3.org/2000/svg">
<path fill-rule="evenodd" clip-rule="evenodd" d="M156.606 9.13452C158.18 9.02654 159.907 8.85685 161.018 8.56375L161.018 5.9104C159.753 6.23436 157.794 6.41947 155.989 6.55831C150.59 6.99025 148.075 9.39677 148.091 18.0664C148.091 23.1572 150.713 25.9956 154.878 25.9956C159.044 25.9956 161.666 23.2343 161.666 18.7915C161.666 14.6572 159.182 12.1118 155.326 12.1118C152.672 12.1118 151.207 13.2842 150.528 14.904L150.466 14.904C150.945 11.0628 152.086 9.42763 156.606 9.13452ZM154.863 23.5582C152.595 23.5582 151.269 21.7996 151.269 18.8223C151.269 16.277 152.21 14.4104 154.786 14.4104C157.054 14.4104 158.411 16.1073 158.411 19.0074C158.411 21.9076 157.131 23.5582 154.863 23.5582ZM145.452 16.8178L145.452 21.9548C145.452 23.5746 145.591 24.7161 145.807 25.58L143.015 25.58C142.876 24.9784 142.83 24.2996 142.83 23.6517L142.768 23.6517C141.765 25.1172 140.223 25.8731 138.14 25.8731C135.271 25.8731 133.481 24.1453 133.481 21.7851C133.481 19.4248 134.808 18.0827 138.757 17.4503C139.868 17.2651 141.487 17.0955 142.459 17.0492L142.459 16.5093C142.459 14.473 141.349 13.6708 139.775 13.6708C138.063 13.6708 137.153 14.6118 137.076 16.0773L134.037 16.0773C134.175 13.4857 136.073 11.4185 139.775 11.4185C143.477 11.4185 145.437 13.208 145.437 16.8024L145.452 16.8178ZM142.475 19.07C141.549 19.1163 140.223 19.2552 139.312 19.4249C137.338 19.7488 136.613 20.3504 136.613 21.5845C136.613 22.8187 137.477 23.6208 139.05 23.6208C139.991 23.6208 140.917 23.3277 141.534 22.6953C142.259 21.9394 142.475 21.2143 142.475 19.7488L142.475 19.07ZM127.882 14.1933L127.882 25.5934L130.967 25.5934L130.967 11.8485L121.032 11.8485C120.862 21.7522 120.168 23.4029 118.379 23.4029C118.194 23.4029 118.009 23.372 117.87 23.3412L117.87 25.5934C118.225 25.6706 118.595 25.7323 119.058 25.7323C122.205 25.7323 123.716 23.9428 123.932 14.1933L127.882 14.1933ZM110.775 18.7142C110.775 23.1879 108.183 25.9955 104.003 25.9955C99.8221 25.9955 97.215 23.1724 97.215 18.7142C97.215 14.256 99.8375 11.4329 104.003 11.4329C108.168 11.4329 110.775 14.256 110.775 18.7142ZM100.47 18.7142C100.47 21.6915 101.828 23.5581 104.018 23.5581C106.209 23.5581 107.566 21.6915 107.566 18.7142C107.566 15.7369 106.209 13.8703 104.018 13.8703C101.828 13.8703 100.47 15.7369 100.47 18.7142ZM93.0798 29.9139L96.1651 29.9139L96.1651 23.2342L94.2985 23.2342L94.2985 11.8341L83.7469 11.8341C83.392 19.2542 82.775 21.7687 81.8494 23.2342L80.1679 23.2342L80.1679 29.9139L83.2532 29.9139L83.2532 25.579L93.0798 25.579L93.0798 29.9139ZM85.3358 23.2342C85.9374 21.5527 86.4156 18.884 86.6933 14.1943L91.2132 14.1943L91.2132 23.2342L85.3358 23.2342ZM79.149 18.7142C79.149 23.1879 76.5574 25.9955 72.3768 25.9955C68.1963 25.9955 65.5892 23.1724 65.5892 18.7142C65.5892 14.256 68.2117 11.4329 72.3768 11.4329C76.542 11.4329 79.149 14.256 79.149 18.7142ZM68.8442 18.7142C68.8442 21.6915 70.2017 23.5581 72.3922 23.5581C74.5828 23.5581 75.9403 21.6915 75.9403 18.7142C75.9403 15.7369 74.5828 13.8703 72.3922 13.8703C70.2017 13.8703 68.8442 15.7369 68.8442 18.7142ZM64.5419 29.9139L61.4566 29.9139L61.4566 25.579L51.6299 25.579L51.6299 29.9139L48.5446 29.9139L48.5446 23.2342L50.2261 23.2342C51.1517 21.7687 51.7688 19.2542 52.1236 11.8341L62.6753 11.8341L62.6753 23.2342L64.5419 23.2342L64.5419 29.9139ZM55.07 14.1943C54.7923 18.884 54.3141 21.5527 53.7125 23.2342L59.59 23.2342L59.59 14.1943L55.07 14.1943Z" fill="#111110"/>
<path fill-rule="evenodd" clip-rule="evenodd" d="M18.1625 0H19.4428V14.0603H18.1625V0ZM18.1625 23.5447H19.4428V37.605H18.1625V23.5447ZM21.7277 22.6161L20.6189 23.2563L27.649 35.4329L28.7579 34.7927L21.7277 22.6161ZM8.84757 2.84557L9.95639 2.20539L16.9865 14.382L15.8777 15.0222L8.84757 2.84557ZM23.2411 20.628L22.6009 21.7368L34.7775 28.767L35.4177 27.6582L23.2411 20.628ZM2.19977 9.95882L2.83995 8.84999L15.0165 15.8801L14.3764 16.989L2.19977 9.95882ZM37.6035 18.1626H23.5432V19.443H37.6035V18.1626ZM0 18.1626H14.0603V19.443H0V18.1626ZM34.7689 8.85853L22.5923 15.8887L23.2325 16.9975L35.4091 9.96736L34.7689 8.85853ZM2.20684 27.6388L14.3834 20.6086L15.0236 21.7175L2.84702 28.7476L2.20684 27.6388ZM27.647 2.18757L20.6169 14.3642L21.7257 15.0043L28.7559 2.82775L27.647 2.18757ZM8.83847 34.7645L15.8686 22.588L16.9775 23.2281L9.9473 35.4047L8.83847 34.7645Z" fill="#111110"/>
<path d="M166.601 26.6843H163.118V22.9376H166.601V26.6843ZM187.858 26.6843H184.85V15.5762H179.072V26.6843H176.064V13.2807H187.858V26.6843ZM198.67 12.9377C202.074 12.9377 204.264 15.7081 204.264 19.9825C204.264 24.2569 202.1 27.0009 198.697 27.0009C197.034 27.0009 195.53 26.2358 194.765 24.9429H194.712V31.5656H191.705V13.2807H194.633V15.1277H194.686C195.478 13.7556 196.982 12.9377 198.67 12.9377ZM197.799 15.286C195.847 15.286 194.554 17.0538 194.554 19.9825C194.554 22.8849 195.847 24.6791 197.799 24.6791C199.831 24.6791 201.124 22.8321 201.124 19.9825C201.124 17.1329 199.831 15.286 197.799 15.286ZM213.147 12.8849C217.21 12.8849 219.743 15.629 219.743 19.9825C219.743 24.3361 217.21 27.0801 213.147 27.0801C209.084 27.0801 206.524 24.3361 206.524 19.9825C206.524 15.629 209.084 12.8849 213.147 12.8849ZM213.147 15.2596C211.01 15.2596 209.691 17.0802 209.691 19.9825C209.691 22.8849 211.01 24.7054 213.147 24.7054C215.284 24.7054 216.604 22.8849 216.604 19.9825C216.604 17.0802 215.284 15.2596 213.147 15.2596ZM228.501 24.8638C230.216 24.8638 231.324 23.9403 231.588 22.6474H234.675C234.174 25.0485 232.01 27.0801 228.501 27.0801C224.411 27.0801 222.01 24.1514 222.01 19.8242C222.01 15.8664 224.385 12.8849 228.448 12.8849C231.509 12.8849 233.725 14.6527 234.464 17.4496C234.728 18.2939 234.833 19.2965 234.833 20.5894H224.992C225.097 23.6237 226.628 24.8638 228.501 24.8638ZM228.448 15.1013C226.628 15.1013 225.308 16.2886 225.045 18.6105H231.826C231.614 16.2622 230.242 15.1013 228.448 15.1013ZM249.834 26.6843H246.034L240.81 20.1936H240.757V26.6843H237.75V13.2807H240.757V18.7688H240.81L245.691 13.2807H249.201L243.66 19.402L249.834 26.6843ZM261.924 15.5762H257.517V26.6843H254.483V15.5762H250.05V13.2807H261.924V15.5762ZM284.018 24.3888V30.9059H281.01V26.6843H271.432V30.9059H268.424V24.3888H270.06C270.957 22.964 271.564 20.5102 271.907 13.2807H282.197V24.3888H284.018ZM279.19 15.5762H274.783C274.519 20.1408 274.044 22.753 273.464 24.3888H279.19V15.5762ZM291.942 12.8849C296.005 12.8849 298.538 15.629 298.538 19.9825C298.538 24.3361 296.005 27.0801 291.942 27.0801C287.878 27.0801 285.319 24.3361 285.319 19.9825C285.319 15.629 287.878 12.8849 291.942 12.8849ZM291.942 15.2596C289.804 15.2596 288.485 17.0802 288.485 19.9825C288.485 22.8849 289.804 24.7054 291.942 24.7054C294.079 24.7054 295.398 22.8849 295.398 19.9825C295.398 17.0802 294.079 15.2596 291.942 15.2596ZM315.093 24.3888V30.9059H312.085V26.6843H302.507V30.9059H299.499V24.3888H301.135C302.032 22.964 302.639 20.5102 302.982 13.2807H313.272V24.3888H315.093ZM310.264 15.5762H305.858C305.594 20.1408 305.119 22.753 304.539 24.3888H310.264V15.5762ZM323.016 12.8849C327.08 12.8849 329.612 15.629 329.612 19.9825C329.612 24.3361 327.08 27.0801 323.016 27.0801C318.953 27.0801 316.394 24.3361 316.394 19.9825C316.394 15.629 318.953 12.8849 323.016 12.8849ZM323.016 15.2596C320.879 15.2596 319.56 17.0802 319.56 19.9825C319.56 22.8849 320.879 24.7054 323.016 24.7054C325.153 24.7054 326.473 22.8849 326.473 19.9825C326.473 17.0802 325.153 15.2596 323.016 15.2596ZM350.42 26.6843H347.412V15.5762H341.634V26.6843H338.626V13.2807H350.42V26.6843ZM367.459 26.6843H364.425V21.6184C364.425 19.7451 364.477 17.8453 364.557 15.972H364.504C363.712 17.7134 362.789 19.5076 361.813 21.249L358.726 26.6843H354.266V13.2807H357.301V18.373C357.301 20.22 357.248 22.1197 357.142 23.993H357.195C358.013 22.2516 358.937 20.4574 359.913 18.716L363 13.2807H367.459V26.6843ZM383.118 24.3888H384.939V30.9059H381.931V26.6843H371.324V13.2807H374.332V24.3888H380.11V13.2807H383.118V24.3888ZM398.939 24.3888H400.759V30.9059H397.752V26.6843H387.145V13.2807H390.153V24.3888H395.931V13.2807H398.939V24.3888ZM405.973 17.9245H409.087C412.517 17.9245 414.364 19.5076 414.364 22.3044C414.364 25.1012 412.517 26.6843 409.087 26.6843H402.965V13.2807H405.973V17.9245ZM419.298 26.6843H416.29V13.2807H419.298V26.6843ZM405.973 20.1672V24.4416H408.77C410.459 24.4416 411.329 23.7556 411.329 22.3044C411.329 20.8796 410.459 20.1672 408.77 20.1672H405.973Z" fill="#111110"/>
</svg>
