<svg width="16" height="17" viewBox="0 0 16 17" fill="none" xmlns="http://www.w3.org/2000/svg">
<rect x="0.279297" y="0.957031" width="15.1604" height="15.1604" rx="7.58018" fill="#F1F3F6"/>
<path d="M7.85934 5.50586C7.44069 5.50586 7.10132 5.84524 7.10132 6.26388C7.10132 6.68252 7.44069 7.02189 7.85934 7.02189C8.27798 7.02189 8.61735 6.68252 8.61735 6.26388C8.61735 5.84524 8.27798 5.50586 7.85934 5.50586Z" fill="#171717"/>
<path d="M7.85934 7.77991C7.44069 7.77991 7.10132 8.11929 7.10132 8.53793V10.812C7.10132 11.2306 7.44069 11.57 7.85934 11.57C8.27798 11.57 8.61735 11.2306 8.61735 10.812V8.53793C8.61735 8.11929 8.27798 7.77991 7.85934 7.77991Z" fill="#171717"/>
</svg>
