<svg width="62" height="65" viewBox="0 0 62 65" fill="none" xmlns="http://www.w3.org/2000/svg">
<path d="M28.7158 0.739502C47.2142 0.739502 61.3601 13.4457 61.3601 32.3234C61.3601 51.2919 47.1236 64.2704 28.7158 64.2704H7.95048C3.77928 64.2704 0.333496 61.4569 0.333496 56.6467V8.63548C0.333496 3.82529 3.77928 0.739502 7.95048 0.739502H28.7158Z" fill="#FF6900"/>
<path d="M10.2185 64.2705C15.4778 61.3662 18.1075 58.6435 20.0118 56.1022C23.5482 57.6451 26.994 58.3712 30.0771 58.3712C35.8805 58.3712 40.7771 55.7392 43.3161 50.929C45.9458 49.3861 47.6687 46.1188 47.85 43.7591C49.4822 41.6717 49.7543 39.0397 49.3009 37.3152C49.2102 36.8615 48.8475 36.8615 48.2127 37.2245C43.0441 40.3103 37.9661 41.8532 33.1601 41.8532C30.2584 41.8532 27.266 41.3994 24.0923 40.4918C23.8202 37.043 23.1855 34.2295 22.9135 32.5051C22.5508 30.2361 23.0948 28.5117 25.5431 28.5117C27.3567 28.5117 30.8025 28.9655 33.5228 30.2361C36.2432 31.5067 37.7847 33.8664 38.9635 33.8664C39.4169 33.8664 39.8703 33.5942 39.8703 32.5958C39.8703 30.5991 39.1449 27.5133 38.3288 26.3335C40.8678 26.152 42.8627 26.2427 43.9509 26.3335C46.3085 26.7873 46.3992 27.9671 46.8526 28.6932C47.306 29.4193 48.1221 29.7823 49.0289 29.7823C50.7517 29.7823 51.8399 28.8747 51.8399 25.6074C51.8399 18.4375 47.306 14.9887 42.5907 14.9887C38.6915 14.9887 37.2407 15.8055 33.5228 15.8055C30.8932 15.8055 28.7169 10.4508 25.7245 9.81546C24.455 6.91119 21.4626 6.54815 19.649 8.00029C18.0168 7.00195 15.3872 7.5465 15.2965 9.36166C13.3922 8.81711 10.9439 9.81546 12.0321 12.2659C7.40745 12.3567 6.50067 16.5316 9.67442 16.9854C5.59389 19.2543 7.49813 23.2477 10.8532 22.4309C11.1253 25.2444 12.2134 29.7823 12.2134 32.9588C12.2134 37.3152 10.2185 38.3136 7.49813 38.3136C5.32185 38.3136 2.23878 37.4968 0.0625 36.9522V40.038C2.23878 40.5825 5.41253 41.2179 7.86085 41.2179C12.1227 41.2179 14.4804 38.6766 14.4804 33.9572C14.4804 28.1486 12.5761 22.7939 13.2109 19.4358L13.0295 19.2543C10.9439 21.4325 9.49306 20.888 9.40238 20.1619C9.13034 18.7098 11.5787 16.9854 13.0295 16.3501C13.0295 16.2593 13.1202 16.1685 13.1202 16.0778C11.76 16.2593 10.2185 16.0778 10.1278 15.1702C10.0371 14.0811 12.3041 12.992 15.2965 13.2643C15.3872 13.1735 15.3872 13.1735 15.4778 13.0828C15.2965 12.992 15.1151 12.9012 14.8431 12.8105C14.1177 12.4475 13.8456 11.7214 14.1177 11.2676C14.3897 10.723 15.2058 10.5415 15.9312 10.5415C17.0194 10.5415 17.9262 10.8138 18.5609 11.0861C18.6516 11.0861 18.7423 10.9953 18.7423 10.9953C18.4702 10.8138 18.2889 10.6323 18.1982 10.36C18.0168 10.0877 17.9262 9.63394 18.2889 9.36166C18.7423 8.99863 19.7397 8.90787 20.7372 9.81546C20.9185 9.99697 21.0999 10.1785 21.2813 10.36C21.3719 10.36 21.4626 10.36 21.644 10.2692C21.4626 9.99697 21.3719 9.81545 21.2813 9.54318C21.1906 9.18015 21.3719 8.90787 21.7346 8.72636C22.188 8.6356 22.6414 8.81711 22.9135 9.18015C23.1855 9.63394 23.3669 10.1785 23.4575 10.5415C21.644 10.9046 16.1126 12.1752 16.1126 18.8913C16.1126 25.4259 21.5533 32.3235 21.5533 42.4885C21.5533 46.2096 20.7372 49.9307 17.3821 54.1963C14.7524 57.5544 10.6719 60.7309 4.32439 63.3629C5.41253 63.9075 6.68203 64.1797 8.0422 64.1797H10.2185V64.2705ZM35.8805 22.9754C36.5152 21.0695 37.0593 19.6174 38.1474 18.5283C39.2356 17.3484 40.4144 16.9854 43.1348 16.9854C46.8526 16.9854 49.9356 20.7065 49.9356 25.9704C49.9356 26.7873 48.9382 26.6965 48.5755 26.0612C47.306 23.883 45.5831 23.52 42.9534 23.3385C40.9585 23.2477 38.6008 23.4292 36.4246 23.52C35.9712 23.4292 35.7898 23.1569 35.8805 22.9754ZM24.0923 43.9406C26.994 44.7574 31.0745 45.2112 34.4296 44.9389C40.3237 44.4852 44.767 42.307 47.2153 40.7641C45.7644 44.5759 40.1424 46.8449 34.7017 47.5709C34.7017 47.8432 34.611 48.1155 34.611 48.3878C38.6915 48.2063 42.5907 46.8449 44.3136 45.665C43.3161 49.3861 38.3288 50.8382 33.7949 51.1105C33.7042 51.3828 33.5228 51.6551 33.4322 51.9273C36.0618 52.0181 38.6008 51.4736 40.0517 51.0198C38.6915 53.561 34.0669 55.6484 29.261 55.6484C26.9033 55.6484 24.0016 55.1946 21.4626 54.0148C23.2762 50.4752 24.0016 47.1172 24.0923 43.9406Z" fill="#111110"/>
<path d="M0.333496 49.3861C2.60046 48.9323 4.77674 48.5693 4.77674 48.5693L5.04877 47.3895C4.05131 47.2987 2.05639 47.3895 0.333496 47.3895V49.3861Z" fill="#111110"/>
<path d="M24.2715 13.446C25.0876 13.1737 26.1757 13.9905 26.8105 15.1704C27.4452 16.3502 27.2639 17.5301 26.4478 17.8024C25.6317 18.0746 24.5435 17.3486 23.9995 16.078C23.9088 15.8964 23.8181 15.7149 23.8181 15.6242H23.9995C24.2715 15.8964 24.5435 15.8964 24.7249 15.8057C24.9969 15.6242 24.9969 15.1704 24.7249 14.7166C24.5435 14.3535 24.1808 13.9905 23.8181 14.0813V13.9905C23.9088 13.7182 24.0901 13.5367 24.2715 13.446ZM29.8029 25.6076C26.3571 24.8815 22.4579 23.7924 20.463 20.7974C20.463 20.7066 20.3723 20.7066 20.2816 20.7066C20.191 20.7066 20.191 20.7974 20.191 20.8882C20.191 21.0697 20.191 21.2512 20.2816 21.4327L20.0096 21.5235C19.4655 20.7974 19.3749 19.8898 19.9189 19.1637C20.6444 18.2562 22.2766 18.3469 23.1834 18.8915L23.0927 19.1637C22.6393 19.073 22.0952 19.073 21.7325 19.3453C21.4605 19.5268 21.3698 19.7991 21.5511 20.1621C23.274 23.3386 28.1707 23.9739 33.9741 23.5201C34.6088 23.4294 34.6995 23.1571 34.7902 22.8848C35.3343 20.8882 36.241 19.073 37.6012 17.7116C36.5131 17.8931 35.5156 17.8931 34.6995 17.9839C31.7071 18.1654 29.9842 17.8024 29.4402 17.3486L29.5308 17.0763C29.8936 17.1671 30.1656 17.1671 30.2563 17.0763C30.3469 16.9855 30.2563 16.8948 30.1656 16.7133C29.6215 16.1687 26.9918 13.5367 26.9918 13.5367C26.7198 11.2678 23.4554 11.2678 22.1859 13.446L21.5511 13.3552C21.6418 12.9014 21.9139 12.4476 22.0952 12.1753C19.3749 12.8107 17.8333 15.2611 17.5613 17.6209C16.3825 27.695 31.7071 25.3353 36.0597 29.4194C36.1504 29.5102 36.3317 29.7825 36.5131 29.601C36.6944 29.0564 34.6995 26.6967 29.8029 25.6076Z" fill="white"/>
<path d="M47.2151 40.7644C44.7668 42.3981 40.3235 44.5763 34.4294 44.9393C31.0743 45.2116 27.0845 44.7578 24.0921 43.9409C24.0921 44.9393 23.9107 45.9376 23.8201 46.936C25.4523 47.3898 28.354 47.9343 32.6159 48.0251C32.4345 49.2049 31.2557 53.0168 28.354 55.4673C33.704 55.6488 38.6007 53.5613 40.0515 50.8386C38.51 51.2924 36.0617 51.8369 33.432 51.7462C33.6133 51.4739 33.704 51.2016 33.7947 50.9293C38.3286 50.7478 43.3159 49.2049 44.3134 45.4838C42.5905 46.6637 38.6913 48.0251 34.6108 48.2066C34.7015 47.9343 34.7015 47.662 34.7015 47.3898C40.0515 46.8452 45.6736 44.4855 47.2151 40.7644Z" fill="white"/>
</svg>
