<svg width="47" height="48" viewBox="0 0 47 48" fill="none" xmlns="http://www.w3.org/2000/svg">
<path d="M21.8856 0.374023C35.6102 0.374023 46.1055 9.80119 46.1055 23.8073C46.1055 37.8807 35.5429 47.5098 21.8856 47.5098H6.47901C3.38424 47.5098 0.827698 45.4224 0.827698 41.8535V6.23233C0.827698 2.66348 3.38424 0.374023 6.47901 0.374023H21.8856Z" fill="#FF6900"/>
<path d="M8.16177 47.5099C12.0639 45.3551 14.0149 43.335 15.4277 41.4496C18.0516 42.5943 20.6081 43.133 22.8956 43.133C27.2013 43.133 30.8343 41.1802 32.7181 37.6114C34.6691 36.4667 35.9474 34.0425 36.082 32.2918C37.2929 30.743 37.4948 28.7903 37.1584 27.5109C37.0911 27.1742 36.822 27.1742 36.3511 27.4435C32.5162 29.733 28.7487 30.8777 25.183 30.8777C23.0301 30.8777 20.8099 30.541 18.4552 29.8676C18.2534 27.3088 17.7825 25.2214 17.5806 23.942C17.3115 22.2586 17.7152 20.9792 19.5317 20.9792C20.8772 20.9792 23.4338 21.3159 25.4521 22.2586C27.4704 23.2013 28.6141 24.9521 29.4887 24.9521C29.8251 24.9521 30.1615 24.75 30.1615 24.0093C30.1615 22.5279 29.6233 20.2385 29.0178 19.3631C30.9016 19.2284 32.3817 19.2958 33.189 19.3631C34.9382 19.6998 35.0055 20.5752 35.3419 21.1138C35.6783 21.6525 36.2838 21.9219 36.9566 21.9219C38.2348 21.9219 39.0422 21.2485 39.0422 18.8244C39.0422 13.5048 35.6783 10.946 32.1799 10.946C29.2869 10.946 28.2105 11.552 25.4521 11.552C23.501 11.552 21.8864 7.57914 19.6662 7.10778C18.7243 4.953 16.5042 4.68365 15.1586 5.76104C13.9476 5.02034 11.9966 5.42436 11.9293 6.7711C10.5165 6.36707 8.69999 7.10778 9.50732 8.92587C6.07616 8.99321 5.40339 12.0907 7.7581 12.4274C4.73061 14.1108 6.14344 17.0736 8.63271 16.4676C8.83454 18.555 9.64187 21.9219 9.64187 24.2787C9.64187 27.5109 8.16177 28.2516 6.14344 28.2516C4.52878 28.2516 2.24134 27.6455 0.626678 27.2415V29.531C2.24134 29.935 4.59605 30.4063 6.41255 30.4063C9.57459 30.4063 11.3238 28.5209 11.3238 25.0194C11.3238 20.7098 9.91098 16.737 10.3819 14.2455L10.2474 14.1108C8.69998 15.7269 7.62354 15.3229 7.55627 14.7842C7.35443 13.7068 9.17093 12.4274 10.2474 11.956C10.2474 11.8887 10.3146 11.8214 10.3146 11.754C9.30548 11.8887 8.16177 11.754 8.09449 11.0807C8.02721 10.2726 9.70915 9.46457 11.9293 9.66658C11.9966 9.59925 11.9966 9.59924 12.0639 9.53191C11.9293 9.46457 11.7948 9.39723 11.5929 9.3299C11.0547 9.06055 10.8529 8.52185 11.0547 8.18517C11.2565 7.78115 11.862 7.64648 12.4003 7.64648C13.2076 7.64648 13.8804 7.84849 14.3513 8.0505C14.4186 8.0505 14.4859 7.98316 14.4859 7.98316C14.284 7.84849 14.1495 7.71381 14.0822 7.5118C13.9476 7.30979 13.8804 6.97311 14.1495 6.7711C14.4859 6.50175 15.2259 6.43441 15.966 7.10778C16.1005 7.24246 16.2351 7.37713 16.3696 7.5118C16.4369 7.5118 16.5042 7.5118 16.6387 7.44447C16.5042 7.24246 16.4369 7.10778 16.3696 6.90577C16.3024 6.63642 16.4369 6.43441 16.706 6.29974C17.0424 6.2324 17.3788 6.36708 17.5806 6.63642C17.7825 6.97311 17.917 7.37713 17.9843 7.64648C16.6387 7.91582 12.5348 8.85854 12.5348 13.8415C12.5348 18.6897 16.5715 23.8073 16.5715 31.3491C16.5715 34.1099 15.966 36.8707 13.4767 40.0355C11.5256 42.527 8.49815 44.8838 3.78872 46.8365C4.59605 47.2406 5.53794 47.4426 6.5471 47.4426H8.16177V47.5099ZM27.2013 16.8716C27.6723 15.4576 28.0759 14.3802 28.8833 13.5721C29.6906 12.6967 30.5652 12.4274 32.5835 12.4274C35.3419 12.4274 37.6293 15.1882 37.6293 19.0937C37.6293 19.6998 36.8893 19.6324 36.6202 19.1611C35.6783 17.545 34.4 17.2756 32.449 17.141C30.9689 17.0736 29.2196 17.2083 27.605 17.2756C27.2686 17.2083 27.134 17.0063 27.2013 16.8716ZM18.4552 32.4264C20.6081 33.0325 23.6356 33.3692 26.1249 33.1671C30.4979 32.8305 33.7945 31.2144 35.611 30.0697C34.5346 32.8978 30.3634 34.5812 26.3267 35.1199C26.3267 35.3219 26.2594 35.5239 26.2594 35.726C29.2869 35.5913 32.1799 34.5812 33.4581 33.7058C32.7181 36.4667 29.0178 37.544 25.6539 37.7461C25.5867 37.9481 25.4521 38.1501 25.3848 38.3521C27.3359 38.4194 29.2196 38.0154 30.2961 37.6787C29.2869 39.5642 25.8558 41.1129 22.2901 41.1129C20.5408 41.1129 18.388 40.7762 16.5042 39.9008C17.8497 37.2747 18.388 34.7832 18.4552 32.4264Z" fill="#111110"/>
<path d="M0.827698 36.4664C2.50964 36.1297 4.1243 35.8604 4.1243 35.8604L4.32613 34.985C3.58608 34.9177 2.10597 34.985 0.827698 34.985V36.4664Z" fill="#111110"/>
<path d="M18.5883 9.80143C19.1938 9.59942 20.0011 10.2055 20.4721 11.0808C20.943 11.9562 20.8084 12.8316 20.2029 13.0336C19.5974 13.2356 18.7901 12.6969 18.3865 11.7542C18.3192 11.6195 18.2519 11.4849 18.2519 11.4175H18.3865C18.5883 11.6195 18.7901 11.6195 18.9247 11.5522C19.1265 11.4175 19.1265 11.0808 18.9247 10.7441C18.7901 10.4748 18.521 10.2055 18.2519 10.2728V10.2055C18.3192 10.0034 18.4537 9.86877 18.5883 9.80143ZM22.6922 18.8246C20.1357 18.2859 17.2427 17.4778 15.7626 15.2557C15.7626 15.1884 15.6954 15.1884 15.6281 15.1884C15.5608 15.1884 15.5608 15.2557 15.5608 15.3231C15.5608 15.4577 15.5608 15.5924 15.6281 15.7271L15.4262 15.7944C15.0226 15.2557 14.9553 14.5823 15.359 14.0437C15.8972 13.3703 17.1082 13.4376 17.781 13.8416L17.7137 14.0437C17.3773 13.9763 16.9736 13.9763 16.7045 14.1783C16.5027 14.313 16.4354 14.515 16.57 14.7844C17.8482 17.1411 21.4812 17.6125 25.787 17.2758C26.2579 17.2085 26.3252 17.0065 26.3925 16.8045C26.7961 15.3231 27.4689 13.9763 28.4781 12.9663C27.6708 13.1009 26.9307 13.1009 26.3252 13.1683C24.105 13.3029 22.8268 13.0336 22.4231 12.6969L22.4904 12.4949C22.7595 12.5622 22.9613 12.5622 23.0286 12.4949C23.0959 12.4276 23.0286 12.3602 22.9613 12.2256C22.5577 11.8215 20.6066 9.86877 20.6066 9.86877C20.4048 8.18535 17.9828 8.18535 17.0409 9.80143L16.57 9.73409C16.6372 9.39741 16.8391 9.06073 16.9736 8.85871C14.9553 9.33007 13.8116 11.1482 13.6097 12.8989C12.7351 20.3733 24.105 18.6226 27.3344 21.6527C27.4016 21.7201 27.5362 21.9221 27.6708 21.7874C27.8053 21.3834 26.3252 19.6326 22.6922 18.8246Z" fill="white"/>
<path d="M35.6109 30.0703C33.7944 31.2824 30.4978 32.8985 26.1248 33.1678C23.6355 33.3698 20.6753 33.0331 18.4551 32.4271C18.4551 33.1678 18.3206 33.9085 18.2533 34.6492C19.4643 34.9859 21.6172 35.3899 24.7792 35.4573C24.6447 36.3326 23.7701 39.1608 21.6172 40.9789C25.5865 41.1136 29.2195 39.5648 30.296 37.5447C29.1523 37.8814 27.3358 38.2854 25.3847 38.2181C25.5193 38.0161 25.5865 37.814 25.6538 37.612C29.0177 37.4774 32.718 36.3326 33.458 33.5718C32.1797 34.4472 29.2868 35.4573 26.2593 35.5919C26.3266 35.3899 26.3266 35.1879 26.3266 34.9859C30.296 34.5819 34.4672 32.8311 35.6109 30.0703Z" fill="white"/>
</svg>
